<?xml version="1.0" encoding="utf-8"?>
<!-- Generator: Adobe Illustrator 27.5.0, SVG Export Plug-In . SVG Version: 6.00 Build 0)  -->
<svg version="1.1" xmlns="http://www.w3.org/2000/svg" xmlns:xlink="http://www.w3.org/1999/xlink" x="0px" y="0px"
	 viewBox="0 0 750 500" style="enable-background:new 0 0 750 500;" xml:space="preserve">
<g id="BACKGROUND">
	<rect style="fill:#F6FCFD;" width="750" height="500"/>
</g>
<g id="OBJECTS">
	<g>
		<g>
			<defs>
				<path id="SVGID_1_" d="M268.835,440.958H65.652c-4.749,0-8.598-3.85-8.598-8.598V67.64c0-4.749,3.849-8.598,8.598-8.598h203.183
					c4.749,0,8.598,3.85,8.598,8.598V432.36C277.433,437.109,273.583,440.958,268.835,440.958z"/>
			</defs>
			<clipPath id="SVGID_00000019662182865136295110000016921712979539203731_">
				<use xlink:href="#SVGID_1_"  style="overflow:visible;"/>
			</clipPath>
			<g style="clip-path:url(#SVGID_00000019662182865136295110000016921712979539203731_);">
				<path style="fill:#FFFFFF;" d="M268.835,440.958H65.652c-4.749,0-8.598-3.85-8.598-8.598V67.64c0-4.749,3.849-8.598,8.598-8.598
					h203.183c4.749,0,8.598,3.85,8.598,8.598V432.36C277.433,437.109,273.583,440.958,268.835,440.958z"/>
				<g>
					<path style="fill:#B3DEFB;" d="M76.298,318.841c-5.462,5.498-25.304,27.068-32.794,18.647
						c-2.182-2.453-2.847-5.861-3.429-9.092c-2.42-13.446-4.833-26.938-5.524-40.583c-0.685-13.519,0.328-27.06,1.34-40.558
						c0.681-9.088,1.362-18.176,2.044-27.263c3.587-47.856,7.979-96.188,15.104-143.454c1.362-9.032,4.299-18.748,12.439-23.933
						c6.772-4.314,15.327-4.263,23.357-4.278c13.61-0.026,26.942-1.685,40.463-2.746c12.947-1.016,26.563,0.922,39.758,0.54
						c28.309-0.818,56.544-4.615,84.9-3.234c6.18,0.301,16.918,1.636,16.368,9.763c-0.424,6.271-2.732,12.416-6.061,17.709
						c-5.473,8.703-13.526,15.436-21.66,21.723c-31.291,24.189-66.574,44.812-89.641,76.939
						C120.035,214.88,116.087,278.793,76.298,318.841z"/>
				</g>
				<g>
					<path style="fill:#FFD4CB;" d="M274.09,102.571c-11.455-0.358-19.887,5.976-30.216,11.124
						c-10.697,5.332-18.791,15.399-21.113,27.207c-2.438,12.394,1.733,25.894,10.738,34.752
						c10.214,10.048,25.901,14.522,38.505,7.04c11.295-6.705,24.259-13.522,30.296-25.853c5.48-11.194,3.699-30.189-3.198-40.43
						c-4.91-7.289-13.008-12.346-21.713-13.557C276.26,102.697,275.162,102.604,274.09,102.571z"/>
				</g>
				<g>
					<path style="fill:#D8EEFF;" d="M49.878,46.092c7.622-0.393,15.283-0.345,22.912-0.427c14.29-0.153,28.582-0.247,42.873-0.322
						c17.008-0.089,34.017-0.142,51.025-0.143c15.899-0.001,31.798,0.031,47.697,0.188c10.929,0.108,21.873,0.187,32.794,0.663
						c2.303,0.1,5.04,0.176,7.042,0.535c0.112,0.02,0.226,0.065,0.338,0.078c0.217,0.026,0.069,0.056,0.08,0.026
						c-0.01,0.027-0.137-0.116-0.084-0.064c-0.024-0.024-0.279-0.427-0.184-0.448c0.005-0.001-0.068,0.801-0.068,0.805
						c-0.156,1.663-0.41,3.315-0.746,4.951c-1.274,6.192-3.728,12.084-6.883,17.547c-6.513,11.275-15.858,20.88-26.144,28.775
						c-11.107,8.526-23.713,14.798-36.5,20.38c-25.598,11.174-52.937,19.982-74.525,38.408
						c-10.225,8.727-18.333,19.404-23.595,31.799c-5.465,12.871-8.071,26.711-10.275,40.45
						c-3.991,24.871-7.069,51.911-23.271,72.357c-3.702,4.672-8.061,8.793-13.006,12.127c0.391,0.225,0.782,0.449,1.174,0.673
						c-1.424-35.139-1.313-70.335,0.391-105.462c0.852-17.563,2.088-35.107,3.726-52.614c1.63-17.427,3.905-34.786,5.524-52.213
						c1.804-19.42,2.721-38.997,0.609-58.432c-0.124-1.142-1.93-1.155-1.805,0c3.782,34.813-1.95,69.681-5.316,104.28
						c-3.406,35.004-5.256,70.145-5.6,105.312c-0.193,19.714,0.119,39.431,0.911,59.129c0.022,0.554,0.659,1.02,1.174,0.674
						c20.99-14.143,29.147-39.955,33.396-63.682c4.924-27.496,6.419-57.445,24.327-80.345
						c17.441-22.304,44.509-33.745,69.946-44.221c13.923-5.734,27.915-11.465,40.924-19.113c10.97-6.449,21.07-14.557,29.427-24.175
						c8.206-9.444,15.045-20.742,17.098-33.248c0.096-0.587,0.182-1.176,0.258-1.766c0.089-0.694,0.378-1.697,0.248-2.386
						c-0.044-0.233-0.068-0.381-0.241-0.564c-0.182-0.193-0.461-0.266-0.707-0.335c-0.807-0.226-1.696-0.261-2.526-0.334
						c-8.831-0.775-17.774-0.716-26.63-0.831c-15.066-0.195-30.134-0.227-45.201-0.23c-17.272-0.003-34.544,0.058-51.816,0.193
						c-15.492,0.121-30.984,0.263-46.475,0.508c-9.725,0.154-19.457,0.275-29.177,0.631c-1.04,0.038-2.079,0.078-3.118,0.141
						C49.414,45.394,49.409,46.116,49.878,46.092z"/>
				</g>
				<path style="fill:#CCE9FD;" d="M99.724,92.276c-1.476,0.338-2.715,1.413-3.966,2.235c-1.303,0.856-2.606,1.711-3.91,2.567
					c-2.363,1.551-0.144,5.379,2.224,3.805c1.385-0.921,2.771-1.842,4.156-2.762c1.352-0.898,2.745-1.638,3.711-2.963
					C103.015,93.679,101.243,91.929,99.724,92.276z"/>
				<path style="fill:#CCE9FD;" d="M113.059,97.653c-2.441-0.749-4.884,0.712-7.079,1.62c-1.418,0.586-2.328,1.919-1.671,3.479
					c0.645,1.53,2.244,1.856,3.657,1.233c2.146-0.946,4.923-1.705,6.059-3.957C114.502,99.082,114.101,97.973,113.059,97.653z"/>
				<path style="fill:#CCE9FD;" d="M125.658,102.644c-1.455,0.091-2.507,0.942-3.58,1.853l-2.942,2.498
					c-0.975,0.828-0.852,2.495,0,3.348c0.932,0.932,2.41,0.875,3.348,0c0.889-0.829,1.778-1.658,2.667-2.487
					c0.901-0.84,1.926-1.78,2.156-3.047C127.493,103.792,126.855,102.569,125.658,102.644z"/>
				<path style="fill:#CCE9FD;" d="M119.504,87.471c-0.585-1.012-1.94-0.69-2.829-0.401c-1.35,0.438-2.642,1.202-3.92,1.817
					c-2.103,1.012-0.249,4.266,1.845,3.157C115.85,91.382,120.708,89.552,119.504,87.471z"/>
				<path style="fill:#CCE9FD;" d="M127.301,90.813c-0.453-0.587-1.436-0.274-1.986,0.015c-0.643,0.338-1.246,0.82-1.853,1.22
					c-0.666,0.438-0.881,1.307-0.375,1.963c0.512,0.664,1.385,0.654,1.994,0.135c0.552-0.471,1.185-0.913,1.685-1.437
					C127.193,92.263,127.754,91.4,127.301,90.813z"/>
				<path style="fill:#CCE9FD;" d="M134.525,81.467c-0.649,0.062-1.221,0.464-1.801,0.745c-0.598,0.29-1.165,0.499-1.825,0.613
					c-1.579,0.272-0.925,2.889,0.673,2.441c0.828-0.232,1.648-0.584,2.339-1.101c0.614-0.459,1.29-1.198,1.317-1.994
					C135.24,81.816,134.895,81.432,134.525,81.467z"/>
				<g>
					<path style="fill:#CCE9FD;" d="M81.851,130.492c6.265,17.586,0.058,38.251-13.205,51.389c-3.759,3.724-8.158,6.99-13.25,8.43
						c-12.251,3.466-25.468-4.895-31.34-16.192c-5.872-11.296-5.961-24.67-4.871-37.354c1.235-14.378,7.088-30.63,23.437-32.832
						C59.315,101.685,76.497,115.465,81.851,130.492z"/>
				</g>
				<g>
					<path style="fill:#FFA391;" d="M270.128,111.597c-7.75,2.291-15.254,5.389-21.754,10.273
						c-6.344,4.766-11.527,10.951-14.883,18.158c-1.713,3.678-3.171,7.584-3.46,11.662c-0.267,3.769,0.4,7.582,1.725,11.109
						c2.816,7.496,8.349,13.865,14.954,18.304c3.279,2.204,6.903,3.952,10.714,5.015c4.173,1.165,8.448,1.34,12.733,0.754
						c5.29-0.724,10.389-2.481,15.294-4.544c4.088-1.719,8.061-3.721,11.805-6.102c7.36-4.681,13.972-10.923,17.699-18.923
						c3.336-7.161,3.863-15.247,1.819-22.857c-1.987-7.396-6.322-14.232-12.415-18.912c-7.597-5.835-17.557-7.295-26.845-5.813
						c-1.255,0.2-2.502,0.467-3.736,0.772c-1.243,0.307-2.417,0.776-3.639,1.141c-0.428,0.128-0.245,0.799,0.185,0.671
						c1.206-0.36,2.501-0.546,3.735-0.793c1.252-0.25,2.513-0.452,3.781-0.609c2.541-0.313,5.101-0.411,7.659-0.313
						c4.671,0.179,9.376,1.174,13.569,3.287c6.664,3.358,11.76,9.199,14.725,15.996c2.96,6.787,3.789,14.606,1.816,21.779
						c-2.221,8.075-7.759,14.816-14.246,19.921c-7.024,5.526-15.441,9.575-23.961,12.192c-4.695,1.442-9.661,2.37-14.587,1.919
						c-3.688-0.338-7.308-1.465-10.632-3.076c-6.938-3.361-12.979-8.84-16.839-15.529c-1.854-3.212-3.196-6.739-3.726-10.419
						c-0.534-3.708-0.102-7.374,1.092-10.91c2.507-7.43,6.761-14.161,12.503-19.512c5.633-5.249,12.457-9.065,19.568-11.926
						c1.825-0.734,3.674-1.39,5.553-1.97C270.807,112.197,270.607,111.455,270.128,111.597z"/>
				</g>
				<g>
					<path style="fill:#FFDE92;" d="M132.283,461.129c-8.273-4.373-19.571-15.233-20.575-25.28
						c-0.862-8.628,13.436-20.345,18.167-27.741c6.496-10.156,12.026-20.893,17.217-31.763c10.276-21.519,19.16-43.765,31.332-64.33
						c4.427-7.48,9.931-15.214,18.243-17.757c7.258-2.221,15.12,0.043,22.051,3.138c13.52,6.038,25.4,15.16,36.969,24.402
						c5.803,4.636,11.618,9.376,16.2,15.222c16.068,20.498,13.395,51.349-0.782,73.198c-14.177,21.849-37.574,36.044-61.549,46.219
						c-12.288,5.215-25.068,9.607-38.336,11.075C157.95,468.978,144.085,467.367,132.283,461.129z"/>
				</g>
				<g>
					<path style="fill:#FFEEC8;" d="M163.547,464.871c-7.098-1.713-13.184-5.375-18.322-10.52c-2.608-2.612-4.984-5.513-7.07-8.558
						c-1.882-2.747-3.3-5.912-3.05-9.307c0.22-2.985,1.599-5.745,3.002-8.334c1.751-3.234,3.546-6.414,5.076-9.762
						c3.981-8.71,8.145-17.331,12.481-25.87c8.422-16.584,17.387-32.878,26.981-48.813c4.418-7.339,8.819-14.763,13.93-21.648
						c4.68-6.304,10.173-12.21,17.05-16.135c14.269-8.144,31.42-5.024,45.398,2.147c7.182,3.684,13.855,8.451,19.74,13.971
						c5.885,5.52,11.045,11.876,14.649,19.124c3.464,6.967,5.314,14.628,5.236,22.417c-0.074,7.4-1.764,14.688-4.473,21.552
						c-5.743,14.55-15.78,27.035-27.06,37.691c-12.336,11.654-26.514,21.289-41.762,28.717c-7.654,3.729-15.585,6.934-23.697,9.521
						c-8.267,2.636-16.864,4.628-25.576,4.771c-2.062,0.034-4.131-0.024-6.187-0.197c-2.103-0.177-4.268-0.35-6.33-0.82
						c-0.56-0.128-0.847,0.724-0.284,0.853c2.175,0.496,4.31,1.023,6.534,1.27c2.156,0.239,4.321,0.338,6.49,0.312
						c4.381-0.053,8.753-0.565,13.055-1.383c8.658-1.646,17.116-4.473,25.284-7.749c16.073-6.446,31.224-15.232,44.677-26.147
						c12.702-10.306,24.329-22.578,32.19-37.023c7.29-13.396,11.24-29.055,7.423-44.145c-4.081-16.129-15.937-29.233-29.308-38.546
						c-13.034-9.079-29.783-15.618-45.835-12.26c-16.56,3.464-27.101,17.466-35.636,30.974
						c-10.197,16.14-19.671,32.752-28.482,49.686c-4.456,8.563-8.69,17.234-12.789,25.973c-2.042,4.354-3.964,8.764-6.002,13.119
						c-1.524,3.257-3.421,6.317-4.993,9.548c-1.295,2.662-2.339,5.526-2.179,8.532c0.188,3.521,1.864,6.639,3.908,9.432
						c4.285,5.856,9.367,11.158,15.795,14.658c3.107,1.691,6.439,2.91,9.886,3.698C163.788,465.732,164.042,464.99,163.547,464.871z
						"/>
				</g>
				<path style="fill:#FFEEC8;" d="M204.362,410.304c-0.3-0.734-0.57-1.2-1.234-1.66c-0.187-0.13-0.382-0.249-0.572-0.373
					c-0.382-0.249-0.763-0.498-1.145-0.746l-2.219-1.446c-1.503-0.979-3.006-1.959-4.509-2.938
					c-1.115-0.727-2.855-0.261-3.474,0.911c-0.673,1.274-0.273,2.689,0.911,3.474c1.472,0.976,2.945,1.951,4.417,2.927
					c0.712,0.472,1.425,0.944,2.137,1.416c0.992,0.658,2.05,1.607,3.296,1.576c0.793-0.02,1.466-0.354,1.948-0.977
					C204.354,411.901,204.651,411.013,204.362,410.304z"/>
				<path style="fill:#FFEEC8;" d="M219.348,401.838c-2.117-1.723-4.269-3.404-6.413-5.093c-0.555-0.438-1.072-0.749-1.809-0.749
					c-0.628,0-1.377,0.279-1.809,0.749c-0.448,0.488-0.78,1.128-0.749,1.809c0.029,0.644,0.236,1.378,0.749,1.809
					c2.085,1.752,4.162,3.512,6.274,5.231c0.469,0.382,0.91,0.648,1.525,0.731c0.609,0.082,1.14-0.031,1.694-0.315
					c0.599-0.307,1.042-0.949,1.221-1.587C220.266,403.584,220.059,402.417,219.348,401.838z"/>
				<path style="fill:#FFEEC8;" d="M241.555,395.324c-0.19-0.645-0.525-1.139-0.956-1.646c-0.414-0.487-0.987-0.869-1.48-1.276
					c-0.485-0.401-0.971-0.801-1.456-1.202c-1.132-0.935-2.265-1.869-3.397-2.804c-0.521-0.43-1.054-0.727-1.754-0.727
					c-0.608,0-1.335,0.27-1.754,0.727c-0.859,0.936-1.043,2.595,0,3.508c1.942,1.7,3.883,3.4,5.825,5.1
					c1.066,0.933,2.512,1.676,3.907,0.935C241.38,397.466,241.834,396.274,241.555,395.324z"/>
				<path style="fill:#FFEEC8;" d="M197.911,391.037c-0.114-0.407-0.32-0.761-0.618-1.061c-0.087-0.105-0.171-0.214-0.261-0.316
					c-0.188-0.213-0.432-0.363-0.658-0.535c-0.191-0.146-0.382-0.291-0.574-0.436c-0.396-0.301-0.792-0.602-1.188-0.903
					c-0.778-0.591-1.557-1.183-2.335-1.775c-0.481-0.365-1.374-0.404-1.926-0.252c-0.58,0.16-1.208,0.608-1.494,1.149
					c-0.307,0.58-0.46,1.283-0.252,1.926c0.084,0.199,0.168,0.398,0.252,0.597c0.222,0.376,0.521,0.675,0.897,0.897
					c0.761,0.587,1.522,1.174,2.283,1.762c0.381,0.294,0.761,0.587,1.142,0.881c0.19,0.147,0.381,0.294,0.571,0.44
					c0.194,0.15,0.408,0.238,0.63,0.339c0.578,0.263,1.215,0.449,1.852,0.242c0.507-0.164,0.922-0.438,1.249-0.861
					c0.313-0.405,0.54-0.93,0.516-1.457L197.911,391.037z"/>
				<path style="fill:#FFEEC8;" d="M216.786,380.046c-0.29-0.544-0.76-0.949-1.193-1.374c-0.338-0.332-0.676-0.664-1.015-0.996
					c-0.666-0.653-1.331-1.306-1.997-1.96c-0.403-0.395-0.98-0.641-1.547-0.641c-0.536,0-1.177,0.238-1.547,0.641
					c-0.383,0.417-0.667,0.964-0.641,1.547c0.026,0.575,0.218,1.138,0.641,1.547c0.67,0.648,1.341,1.297,2.011,1.945
					c0.33,0.319,0.66,0.638,0.989,0.956c0.443,0.428,0.875,0.924,1.431,1.202c0.431,0.216,0.853,0.314,1.336,0.249
					c0.44-0.059,0.894-0.24,1.203-0.576C217.107,381.878,217.239,380.897,216.786,380.046z"/>
				<path style="fill:#FFEEC8;" d="M197.454,373.887c0-0.251-0.062-0.471-0.147-0.685c-0.192-0.996-0.987-1.865-1.558-2.662
					c-0.528-0.737-1.056-1.473-1.584-2.21c-0.328-0.457-0.7-0.815-1.261-0.969c-0.505-0.139-1.177-0.076-1.625,0.213
					c-0.451,0.29-0.847,0.723-0.969,1.261c-0.119,0.521-0.116,1.175,0.213,1.625c0.545,0.747,1.09,1.493,1.635,2.24
					c0.267,0.366,0.535,0.733,0.802,1.099c0.216,0.296,0.424,0.614,0.678,0.876c0.072,0.074,0.146,0.147,0.221,0.217
					c0.179,0.168,0.352,0.29,0.537,0.393c0.208,0.171,0.427,0.321,0.703,0.397c0.269,0.074,0.532,0.066,0.795,0.03
					c0.083,0.011,0.161,0.034,0.251,0.031c0.514-0.016,0.886-0.335,1.055-0.803c0.032-0.089,0.056-0.186,0.072-0.283
					C197.377,374.414,197.454,374.16,197.454,373.887z"/>
				<path style="fill:#FFE8E4;" d="M261.529,141.913c-0.066-0.279-0.195-0.523-0.384-0.73c-0.286-0.37-0.657-0.638-1.115-0.769
					c-0.648-0.185-1.214-0.044-1.765,0.215c-0.022,0.005-0.045,0.002-0.067,0.007c-0.417,0.117-0.779,0.328-1.086,0.633
					c-0.091,0.077-0.18,0.155-0.271,0.233c-0.158,0.136-0.316,0.272-0.473,0.408c-0.338,0.291-0.676,0.583-1.015,0.874
					c-0.676,0.583-1.353,1.166-2.029,1.748c-0.46,0.397-0.727,1.166-0.727,1.754c0,0.608,0.27,1.335,0.727,1.754
					c0.473,0.434,1.093,0.756,1.754,0.727c0.682-0.031,1.238-0.275,1.754-0.727c0.66-0.578,1.32-1.156,1.981-1.734l0.974-0.852
					c0.512-0.448,1.062-0.886,1.322-1.518c0.069-0.09,0.143-0.177,0.2-0.275c0.162-0.255,0.25-0.53,0.263-0.826
					c0.042-0.118,0.052-0.236,0.032-0.354C261.58,142.293,261.555,142.103,261.529,141.913z"/>
				<path style="fill:#FFE8E4;" d="M263.245,153.424c-0.256-0.397-0.583-0.606-1.018-0.782c-0.652-0.266-1.445,0.015-2.091,0.204
					c-0.569,0.166-1.12,0.481-1.655,0.736c-0.844,0.402-1.688,0.804-2.532,1.205c-0.471,0.224-0.872,0.822-1.005,1.307
					c-0.144,0.524-0.079,1.221,0.221,1.686c0.66,1.025,1.914,1.366,2.993,0.785l2.462-1.325c0.194-0.104,0.388-0.209,0.582-0.313
					c0.35-0.188,0.623-0.377,0.943-0.632c0.541-0.43,1.098-0.841,1.272-1.559C263.518,154.318,263.485,153.796,263.245,153.424z"/>
				<path style="fill:#FFE8E4;" d="M249.047,152.808c0.002-0.167-0.021-0.333-0.097-0.514c-0.093-0.221-0.224-0.367-0.38-0.5
					c-0.372-0.388-0.9-0.554-1.447-0.575c-0.506-0.019-0.921,0.203-1.37,0.393c-0.359,0.152-0.718,0.304-1.077,0.456
					c-0.745,0.315-1.491,0.631-2.236,0.946c-0.413,0.175-0.776,0.746-0.889,1.156c-0.127,0.463-0.07,1.079,0.195,1.49
					c0.266,0.413,0.663,0.776,1.156,0.889c0.171,0.023,0.343,0.046,0.514,0.069c0.349-0.001,0.674-0.089,0.976-0.264
					c0.724-0.323,1.447-0.646,2.171-0.969c0.355-0.158,0.71-0.317,1.065-0.475c0.311-0.139,0.564-0.251,0.805-0.526
					c0.134-0.153,0.273-0.318,0.383-0.488C249.012,153.592,249.089,153.182,249.047,152.808z"/>
			</g>
		</g>
		<g>
			<g>
				<path style="fill:#2D6D7C;" d="M271.63,42.23H62.86c-6.84,0-12.38,5.54-12.38,12.38v390.78c0,6.84,5.54,12.38,12.38,12.38
					h208.77c6.84,0,12.38-5.54,12.38-12.38V54.61C284.01,47.77,278.47,42.23,271.63,42.23z M283.01,445.39
					c0,6.27-5.1,11.38-11.38,11.38H62.86c-6.28,0-11.38-5.11-11.38-11.38V54.61c0-6.27,5.1-11.38,11.38-11.38h208.77
					c6.28,0,11.38,5.11,11.38,11.38V445.39z"/>
				<path style="fill:#2D6D7C;" d="M268.83,59.04H65.65c-4.75,0-8.6,3.85-8.6,8.6v364.72c0,4.75,3.85,8.6,8.6,8.6h203.18
					c4.75,0,8.6-3.85,8.6-8.6V67.64C277.43,62.89,273.58,59.04,268.83,59.04z M276.43,432.36c0,4.19-3.41,7.6-7.6,7.6H65.65
					c-4.19,0-7.6-3.41-7.6-7.6V67.64c0-4.19,3.41-7.6,7.6-7.6h203.18c4.19,0,7.6,3.41,7.6,7.6V432.36z"/>
				<path style="fill:#2D6D7C;" d="M185.05,48.78c-0.75-0.74-1.77-1.2-2.91-1.2h-46.78c-2.27,0-4.12,1.84-4.12,4.11
					c0,1.13,0.46,2.16,1.21,2.91c0.75,0.74,1.77,1.2,2.91,1.2h46.78c2.27,0,4.11-1.84,4.11-4.11
					C186.25,50.56,185.79,49.53,185.05,48.78z M182.14,54.8h-46.78c-1.72,0-3.12-1.4-3.12-3.11c0-1.72,1.4-3.11,3.12-3.11h46.78
					c1.71,0,3.11,1.39,3.11,3.11C185.25,53.4,183.85,54.8,182.14,54.8z"/>
				<path style="fill:#2D6D7C;" d="M199.13,47.58c-2.27,0-4.11,1.84-4.11,4.11s1.84,4.11,4.11,4.11c1.13,0,2.16-0.46,2.91-1.2
					c0.74-0.75,1.2-1.78,1.2-2.91C203.24,49.42,201.4,47.58,199.13,47.58z M199.13,54.8c-1.72,0-3.11-1.4-3.11-3.11
					c0-1.72,1.39-3.11,3.11-3.11s3.11,1.39,3.11,3.11C202.24,53.4,200.85,54.8,199.13,54.8z"/>
			</g>
			<g>
				<path style="fill:#2D6D7C;" d="M185.748,121.684c2.095-2.383-2.688-7.061-4.241-8.526c-3.076-2.903-6.967-4.921-11.139-5.582
					c0.697-0.201,1.396-0.399,2.096-0.588c6.005-1.623,12.067-2.436,18.125-3.703c0.079,1.803,0.826,3.574,1.746,5.181
					c1.221,2.134,6.262,7.437,8.677,3.611c0.749-1.186,0.473-2.778,1.329-4.004c0.723-1.035,1.648-1.254,2.65-1.863
					c1.487-0.902,1.57-2.046,1.348-3.745c-0.002-0.015-0.01-0.025-0.013-0.039c-0.001-0.021,0.004-0.039-0.001-0.061
					c-0.262-1.198-0.7-2.24-1.648-3.055c-1.389-1.194-3.203-1.392-4.326-2.924c-1.232-1.68-2.074-2.285-4.253-1.341
					c-2.264,0.981-4.129,3.233-5.045,5.479c-0.343,0.841-0.483,1.69-0.473,2.533c-6.081,0.077-12.522,1.526-18.358,3.059
					c-2.09,0.549-4.162,1.16-6.217,1.823c7.229-4.333,13.211-12.134,15.642-19.981c0.366,0.071,0.738,0.13,1.113,0.179
					c2.776,0.36,10.985-0.942,8.013-5.499c-0.91-1.395-2.241-2.275-2.299-4.088c-0.025-0.777,0.313-1.488,0.339-2.251
					c0.053-1.559-1.045-2.314-2.334-2.998c-1.041-0.457-2.054-0.742-3.201-0.533c-1.801,0.328-2.92,1.875-4.857,1.926
					c-2.107,0.056-3.192-0.122-3.842,2.319c-0.626,2.349,0.05,5.15,1.214,7.219c1.232,2.188,3.31,3.195,5.631,3.68
					c-2.172,4.244-4.481,8.31-7.626,11.93c-2.959,3.406-6.503,6.155-10.083,8.861c-1.293,0.446-2.577,0.914-3.854,1.404
					c2.239-1.473,3.997-3.634,5.013-6.164c1.74-4.332,0.696-8.916-0.535-13.227c-0.034-0.12-0.18-0.222-0.306-0.173
					c-8.486,3.259-11.928,13.018-7.159,20.752c-0.891,0.368-1.78,0.744-2.663,1.133c-11.932,5.257-22.892,12.4-32.578,21.119
					c-0.397,0.358,0.204,0.927,0.601,0.573c9.521-8.496,20.371-15.522,32.042-20.691c4.861-2.153,9.862-3.991,14.956-5.514
					c-0.971,4.193,2.349,7.74,5.516,10.156C176.608,119.486,183.434,124.317,185.748,121.684z M195.397,96.331
					c1.261-0.823,2.814-1.431,3.997-0.09c0.418,0.474,0.517,1.207,0.957,1.684c0.465,0.504,0.861,0.609,1.472,0.847
					c1.938,0.757,3.275,1.66,3.746,3.783c0.225,1.82-0.135,2.506-1.726,3.316c-0.822,0.418-1.492,0.862-2.038,1.623
					c-0.931,1.298-0.73,3.853-1.987,4.704c-1.819,1.232-4.454-0.993-5.496-2.23c-1.679-1.994-3.183-4.886-2.939-7.539
					C191.601,100.049,193.432,97.613,195.397,96.331z M177.311,85.057c-1.458-1.539-2.185-4.195-2.164-6.264
					c0.017-1.706,0.511-3.38,2.592-3.408c0.566-0.008,1.13,0.234,1.702,0.149c0.518-0.077,0.666-0.201,1.102-0.432
					c2.072-1.099,3.182-2.159,5.561-1.115c2.85,1.511,1.261,2.769,1.652,5.192c0.199,1.233,0.916,2.289,1.719,3.215
					c0.972,1.121,1.5,2.178,0.328,3.432c-0.982,1.051-2.546,1.453-3.91,1.601C183.092,87.73,179.332,87.191,177.311,85.057z
					 M155.592,99.882c0.622-2.112,1.795-4.064,3.351-5.621c0.64-0.64,3.861-3.687,5.109-2.577c0.229,0.204,0.468,2.211,0.53,2.527
					c0.214,1.088,0.41,2.186,0.493,3.293c0.139,1.857,0.005,3.743-0.578,5.521c-1.189,3.624-3.884,6.343-7.195,8.059
					C155.205,107.747,154.464,103.712,155.592,99.882z M182.208,121.377c-0.918-0.089-1.871-0.696-2.717-1.102
					c-1.783-0.856-3.466-1.923-4.998-3.175c-2.842-2.324-5.398-5.445-4.895-9.296c0.064-0.019,0.128-0.039,0.193-0.058
					c6.181,1.482,12.256,5.036,15.235,10.871C185.957,120.44,184.437,121.592,182.208,121.377z"/>
				<path style="fill:#2D6D7C;" d="M276.43,389.06c-3.6-3.52-6.99-7.26-10.14-11.18c4.25-0.68,6.28-5.09,7.33-8.94
					c0.61-2.25,2.51-10.4-0.8-11.55c-3-1.04-5.53,5.15-6.3,7.14c-1.53,3.95-1.93,8.31-0.97,12.43c-0.45-0.57-0.9-1.15-1.34-1.72
					c-3.76-4.95-6.8-10.26-10.26-15.4c1.64-0.75,3-2.11,4.14-3.57c1.52-1.93,4.53-8.6,0.08-9.39c-1.38-0.25-2.76,0.6-4.21,0.27
					c-1.23-0.28-1.79-1.05-2.73-1.75c-1.39-1.04-2.48-0.68-3.97,0.16c-0.02,0.01-0.02,0.02-0.04,0.03
					c-0.01,0.01-0.03,0.01-0.05,0.02c-1.01,0.7-1.81,1.5-2.21,2.68c-0.58,1.74-0.08,3.49-1.08,5.11c-1.09,1.78-1.33,2.79,0.36,4.45
					c1.76,1.72,4.55,2.6,6.98,2.61c0.91,0,1.75-0.19,2.52-0.52c2.37,5.6,6.14,11.02,9.76,15.85c1.29,1.73,2.64,3.42,4.03,5.07
					c-6.74-5.06-16.22-7.66-24.4-6.95c-0.08-0.37-0.16-0.74-0.26-1.1c-0.71-2.71-5.01-9.82-8.11-5.35
					c-0.95,1.37-1.26,2.93-2.92,3.67c-0.71,0.31-1.5,0.27-2.21,0.53c-1.47,0.54-1.75,1.84-1.9,3.29c-0.03,1.14,0.09,2.19,0.71,3.17
					c0.99,1.54,2.84,2,3.62,3.77c0.84,1.93,1.09,3.01,3.59,2.69c2.41-0.31,4.75-1.99,6.23-3.85c1.56-1.96,1.71-4.27,1.29-6.6
					c4.75,0.41,9.38,1.02,13.92,2.56c4.27,1.46,8.15,3.71,12.01,6c0.9,1.03,1.82,2.05,2.75,3.04c-2.21-1.51-4.87-2.33-7.6-2.32
					c-4.66,0.03-8.52,2.72-12.05,5.49c-0.09,0.07-0.13,0.25-0.04,0.34c6.22,6.64,16.55,6.15,21.92-1.19
					c0.68,0.69,1.36,1.37,2.05,2.04c0.1,0.1,0.2,0.19,0.3,0.28c0.33,0.33,0.66,0.64,1,0.95v-1.29c-0.14-0.13-0.27-0.25-0.4-0.38
					C276.83,389.46,276.63,389.26,276.43,389.06z M252.86,359.43c-2.29,0.7-5.23-0.08-7.16-1.42c-1.24-0.85-2.39-2.06-1.59-3.67
					c0.28-0.56,0.92-0.93,1.2-1.52c0.29-0.62,0.24-1.02,0.23-1.68c-0.03-2.08,0.3-3.66,2.09-4.89c1.6-0.9,2.37-0.82,3.72,0.34
					c0.7,0.61,1.36,1.06,2.27,1.28c1.56,0.37,3.85-0.78,5.11,0.07c1.83,1.22,0.76,4.5,0,5.93
					C257.52,356.17,255.41,358.66,252.86,359.43z M265.92,377.43c-0.95-6.29,0.05-13.25,4.33-18.21c1.34-1.55,2.98-0.58,3.62,1.57
					c0.26,0.88,0.06,1.99,0,2.93c-0.12,1.97-0.47,3.93-1.05,5.83c-1.09,3.5-3.01,7.05-6.77,8.03
					C266.01,377.53,265.97,377.48,265.92,377.43z M242.07,379.01c-0.87,1.94-3.06,3.61-4.98,4.37c-1.59,0.63-3.33,0.8-4.14-1.12
					c-0.22-0.52-0.2-1.13-0.5-1.63c-0.27-0.45-0.44-0.54-0.81-0.86c-1.8-1.5-3.2-2.13-3.13-4.73c0.32-3.2,2.09-2.21,4.18-3.48
					c1.07-0.65,1.78-1.71,2.33-2.81c0.67-1.32,1.45-2.21,3.06-1.59c1.34,0.51,2.3,1.81,2.95,3.01
					C242.37,372.65,243.29,376.34,242.07,379.01z M263.99,393.54c-2.19,0.22-4.44-0.13-6.47-0.98c-0.83-0.35-4.87-2.19-4.31-3.76
					c0.1-0.29,1.87-1.27,2.14-1.44c0.93-0.61,1.87-1.21,2.87-1.7c1.66-0.83,3.46-1.42,5.33-1.55c3.8-0.26,7.34,1.21,10.17,3.63
					C271.42,390.94,267.96,393.14,263.99,393.54z"/>
				<g>
					<g>
						<path style="fill:#2D6D7C;" d="M109.728,410.505c3.789-8.01,4.912-16.788,3.114-25.496c-0.935-4.529-2.688-8.716-5.012-12.695
							c-3.014-5.161-7.028-10.686-5.504-17.022c2.457-10.215,13.706-14.362,19.476-22.277c4.084-5.603,5.141-13.561-0.678-18.38
							c-0.554-0.459-1.355,0.335-0.795,0.796c10.275,8.456-1.434,19.872-8.271,25.555c-5.219,4.339-11.029,9.703-11.126,17.05
							c-0.104,7.865,6.417,14.092,9.107,21.068c3.874,10.047,3.3,21.23-0.877,31.072
							C109.001,410.553,109.545,410.893,109.728,410.505L109.728,410.505z"/>
					</g>
					<g>
						<path style="fill:#2D6D7C;" d="M107.104,405.122c0.069-2.487-1.487-3.935-3.66-4.899c-3.924-1.74-8.277-2.542-12.506-3.092
							c-0.248-0.032-0.456,0.278-0.38,0.499c2.291,6.579,9.667,11.156,16.433,7.972c0.119-0.056,0.163-0.242,0.091-0.348
							c-0.047-0.071-0.094-0.141-0.141-0.211c-0.067-0.1-0.268-0.108-0.289,0.038c-0.179,1.213-6.692,0.169-7.432-0.051
							c-2.699-0.802-5.006-2.535-6.559-4.886c-2.043-3.092,3.856-1.187,5.186-0.804c2.869,0.827,8.357,2.028,8.66,5.783
							C106.537,405.501,107.093,405.511,107.104,405.122z"/>
					</g>
					<g>
						<path style="fill:#2D6D7C;" d="M108.711,386.361c-0.111-2.484-1.729-3.822-3.969-4.633c-4.024-1.458-8.459-1.946-12.705-2.188
							c-0.329-0.019-0.45,0.342-0.34,0.593c2.799,6.413,10.4,10.257,16.921,6.703c0.159-0.086,0.147-0.276,0.052-0.4
							c-0.048-0.062-0.097-0.125-0.145-0.187c-0.092-0.119-0.261-0.009-0.27,0.112c-0.032,0.425-4.023,0.753-4.022,0.753
							c-1.413,0.05-2.849-0.1-4.207-0.5c-1.264-0.372-2.45-0.952-3.523-1.711c-0.717-0.508-3.568-2.811-3.461-3.842
							c-0.39-0.351-0.327-0.572,0.189-0.665c1.154,0.092,2.304,0.228,3.448,0.408c1.179,0.185,2.352,0.418,3.513,0.694
							c2.861,0.681,7.395,1.449,7.933,4.944C108.176,386.774,108.726,386.694,108.711,386.361z"/>
					</g>
					<g>
						<path style="fill:#2D6D7C;" d="M100.485,367.125c-0.111-2.484-1.729-3.822-3.969-4.633c-4.024-1.458-8.459-1.946-12.705-2.188
							c-0.329-0.019-0.45,0.341-0.34,0.593c2.799,6.413,10.4,10.257,16.921,6.703c0.159-0.086,0.147-0.276,0.051-0.4
							c-0.048-0.062-0.097-0.125-0.145-0.187c-0.092-0.119-0.261-0.008-0.27,0.112c-0.032,0.425-4.023,0.753-4.022,0.753
							c-1.413,0.05-2.849-0.1-4.207-0.5c-1.264-0.372-2.45-0.952-3.523-1.711c-0.717-0.508-3.568-2.811-3.461-3.842
							c-0.391-0.351-0.328-0.572,0.188-0.665c1.154,0.092,2.304,0.228,3.448,0.408c1.179,0.185,2.352,0.417,3.513,0.694
							c2.861,0.681,7.395,1.449,7.933,4.944C99.949,367.537,100.5,367.458,100.485,367.125z"/>
					</g>
					<g>
						<path style="fill:#2D6D7C;" d="M99.916,350.128c1.499-2.456,0.385-4.697-1.282-6.748c-2.546-3.133-5.566-5.787-8.77-8.22
							c-0.194-0.148-0.535,0.004-0.579,0.235c-1.268,6.778,2.831,14.591,10.294,15.091c0.131,0.009,0.264-0.124,0.254-0.254
							c-0.006-0.085-0.012-0.17-0.018-0.255c-0.008-0.12-0.178-0.229-0.27-0.112c-0.765,0.973-5.965-3.241-6.55-3.87
							c-1.547-1.664-3.944-5.477-3.166-7.814c-0.28-0.91,0.095-1.303,1.126-1.18c0.512,0.422,1.014,0.855,1.508,1.298
							c0.74,0.665,1.46,1.354,2.156,2.066c2.083,2.129,6.414,5.986,4.78,9.461C99.239,350.169,99.713,350.461,99.916,350.128z"/>
					</g>
					<g>
						<path style="fill:#2D6D7C;" d="M110.778,337.743c1.499-2.456,0.385-4.697-1.282-6.748c-2.546-3.133-5.566-5.787-8.77-8.22
							c-0.194-0.148-0.535,0.005-0.579,0.235c-1.268,6.778,2.831,14.591,10.294,15.091c0.131,0.009,0.264-0.124,0.255-0.255
							c-0.006-0.085-0.012-0.17-0.018-0.255c-0.008-0.12-0.178-0.229-0.27-0.112c-0.765,0.973-5.965-3.241-6.55-3.87
							c-1.546-1.664-3.944-5.477-3.166-7.814c-0.28-0.91,0.095-1.303,1.126-1.18c0.512,0.422,1.014,0.855,1.508,1.298
							c0.74,0.665,1.46,1.354,2.156,2.066c2.083,2.129,6.414,5.986,4.78,9.461C110.101,337.785,110.575,338.077,110.778,337.743z"/>
					</g>
					<g>
						<path style="fill:#2D6D7C;" d="M118.788,321.451c0.851-2.973-1.115-4.849-3.402-6.423c-3.203-2.204-6.662-3.894-10.263-5.336
							c-0.228-0.091-0.518,0.143-0.498,0.38c0.552,6.803,6.625,13.406,13.936,11.812c0.128-0.028,0.222-0.188,0.178-0.313
							c-0.028-0.08-0.057-0.16-0.085-0.241c-0.055-0.156-0.245-0.143-0.305,0c-0.381,0.908-6.03-1.301-6.736-1.687
							c-2.696-1.474-4.716-3.926-5.659-6.853c-1.05-3.258,3.822-0.104,5.063,0.616c2.609,1.513,7.839,4.156,7.196,7.887
							C118.148,321.664,118.68,321.828,118.788,321.451z"/>
					</g>
					<g>
						<path style="fill:#2D6D7C;" d="M115.411,404.672c2.974,1.172,5.097-1.013,6.802-3.204c2.313-2.971,4.169-6.19,5.799-9.577
							c0.125-0.26-0.022-0.597-0.34-0.593c-6.84,0.093-13.781,5.744-12.692,13.127c0.02,0.136,0.194,0.211,0.313,0.178
							c0.08-0.022,0.16-0.045,0.24-0.067c0.125-0.035,0.162-0.226,0.038-0.289c-0.331-0.167,0.379-2.613,0.497-3.028
							c0.493-1.731,1.356-3.458,2.514-4.849c2.275-2.734,5.584-4.145,9.091-4.283c-0.113-0.198-0.227-0.395-0.34-0.593
							c-1.089,2.317-2.384,4.537-3.851,6.636c-1.688,2.416-4.426,6.92-7.912,5.966C115.19,403.992,115.061,404.534,115.411,404.672z
							"/>
					</g>
					<g>
						<path style="fill:#2D6D7C;" d="M116.591,382.73c2.974,1.172,5.097-1.013,6.802-3.204c2.313-2.971,4.169-6.19,5.799-9.577
							c0.125-0.26-0.022-0.597-0.34-0.593c-6.84,0.093-13.781,5.744-12.692,13.127c0.02,0.136,0.194,0.211,0.313,0.178
							c0.08-0.022,0.16-0.045,0.24-0.067c0.125-0.035,0.162-0.226,0.038-0.289c-0.331-0.167,0.379-2.613,0.497-3.028
							c0.493-1.731,1.356-3.458,2.514-4.849c2.275-2.734,5.584-4.145,9.091-4.283c-0.113-0.198-0.227-0.395-0.34-0.593
							c-1.089,2.317-2.384,4.538-3.851,6.636c-1.688,2.416-4.426,6.92-7.912,5.966C116.37,382.05,116.241,382.592,116.591,382.73z"
							/>
					</g>
					<g>
						<path style="fill:#2D6D7C;" d="M107.053,365.031c2.974,1.172,5.097-1.014,6.802-3.204c2.313-2.971,4.169-6.19,5.799-9.577
							c0.125-0.26-0.022-0.597-0.34-0.593c-6.84,0.093-13.781,5.744-12.692,13.127c0.02,0.136,0.193,0.211,0.313,0.178
							c0.08-0.022,0.16-0.045,0.24-0.067c0.125-0.035,0.162-0.226,0.038-0.289c-0.331-0.167,0.379-2.613,0.497-3.028
							c0.493-1.731,1.356-3.458,2.514-4.849c2.275-2.734,5.584-4.145,9.091-4.283c-0.113-0.198-0.227-0.395-0.34-0.593
							c-1.089,2.317-2.384,4.537-3.851,6.636c-1.688,2.416-4.426,6.92-7.912,5.966C106.833,364.351,106.703,364.893,107.053,365.031
							z"/>
					</g>
					<g>
						<path style="fill:#2D6D7C;" d="M120.771,339.488c4.346,4.764,13.509-2.754,17.104-5.419c0.217-0.161,0.291-0.536,0-0.68
							c-6.241-3.091-14.694-1.333-17.36,5.674c-0.047,0.124,0.053,0.286,0.178,0.313c0.083,0.018,0.165,0.036,0.248,0.054
							c0.122,0.027,0.265-0.112,0.179-0.232c-0.539-0.755,4.024-4.309,4.546-4.63c2.531-1.558,6.463-2.636,9.344-1.428
							c1.889,0.792,1.526,0.987,0.024,1.963c-1.002,0.652-2.027,1.264-3.076,1.837c-2.637,1.44-7.859,4.688-10.763,2.126
							C120.906,338.811,120.51,339.202,120.771,339.488z"/>
					</g>
					<g>
						<path style="fill:#2D6D7C;" d="M128.063,319.344c2.687,1.003,4.662-0.676,6.264-2.69c2.502-3.146,4.435-6.667,6.105-10.309
							c0.118-0.256-0.017-0.603-0.34-0.593c-6.833,0.217-13.687,5.984-12.461,13.35c0.022,0.134,0.192,0.214,0.313,0.178
							c0.08-0.024,0.16-0.048,0.24-0.072c0.121-0.036,0.166-0.228,0.038-0.289c-0.339-0.163,0.326-2.609,0.437-3.029
							c0.407-1.539,1.095-3.037,2.011-4.344c2.179-3.109,5.692-4.791,9.421-5.006c-0.113-0.198-0.227-0.395-0.34-0.593
							c-1.069,2.376-2.344,4.653-3.804,6.812c-1.607,2.375-4.285,6.884-7.726,6.009
							C127.843,318.671,127.707,319.211,128.063,319.344z"/>
					</g>
				</g>
			</g>
		</g>
	</g>
	<g>
		<g>
			<g>
				<path style="fill:#D0EFF7;" d="M235.802,240.782H98.684c-6.911,0-12.513-5.602-12.513-12.513v-47.838
					c0-6.949,5.633-12.581,12.581-12.581h137.049c6.911,0,12.513,5.602,12.513,12.513v47.906
					C248.315,235.18,242.713,240.782,235.802,240.782z"/>
			</g>
			<g>
				<path style="fill:#2D6D7C;" d="M236.074,241.212H98.411c-6.986,0-12.67-5.684-12.67-12.671V180.09
					c0-6.987,5.683-12.671,12.67-12.671h137.664c6.986,0,12.671,5.684,12.671,12.671v48.452
					C248.745,235.529,243.061,241.212,236.074,241.212z M98.411,168.28c-6.511,0-11.809,5.298-11.809,11.81v48.452
					c0,6.512,5.298,11.81,11.809,11.81h137.664c6.512,0,11.81-5.298,11.81-11.81V180.09c0-6.512-5.298-11.81-11.81-11.81H98.411z"/>
			</g>
		</g>
		<g>
			<g>
				<path style="fill:#FFFFFF;" d="M167.262,268.097c22.707,0,45.414,0.007,68.122-0.011c2.27-0.002,4.469-0.447,6.467-1.614
					c5.954-3.478,7.43-11.178,2.126-16.333c-2.374-2.307-5.337-3.186-8.547-3.199c-17.615-0.069-35.23-0.128-52.846-0.123
					c-27.845,0.008-55.691,0.037-83.535,0.174c-2.074,0.01-4.31,0.615-6.184,1.531c-4.986,2.437-7.46,8.93-4.028,14.29
					c2.379,3.715,5.949,5.254,10.166,5.263C121.755,268.124,144.508,268.099,167.262,268.097z"/>
			</g>
			<g>
				<path style="fill:#80C8F9;" d="M167.706,267.021c0-6.413,0-12.597,0-18.954c0.498-0.022,0.979-0.061,1.46-0.063
					c21.552-0.056,43.104-0.136,64.655-0.118c2.115,0.002,4.349,0.274,6.32,0.991c4.513,1.641,6.709,5.811,5.951,10.549
					c-0.606,3.789-4.709,7.282-8.968,7.517c-2.604,0.144-5.217,0.175-7.826,0.172c-19.947-0.02-39.894-0.061-59.841-0.095
					C168.918,267.02,168.378,267.021,167.706,267.021z"/>
			</g>
			<g>
				<path style="fill:#80C8F9;" d="M166.578,248.003c0,6.414,0,12.632,0,18.951c-0.514,0.025-0.959,0.064-1.405,0.065
					c-21.508,0.056-43.016,0.137-64.525,0.12c-2.115-0.002-4.351-0.278-6.319-1.003c-4.45-1.64-6.645-5.512-5.905-10.566
					c0.561-3.831,4.705-7.255,8.98-7.493c2.467-0.137,4.943-0.176,7.414-0.173c19.995,0.021,39.99,0.063,59.985,0.098
					C165.348,248.003,165.891,248.003,166.578,248.003z"/>
			</g>
			<g>
				<path style="fill:#2D6D7C;" d="M167.261,268.098c-22.753,0.001-45.506,0.027-68.259-0.022
					c-4.216-0.009-7.787-1.548-10.166-5.263c-3.432-5.361-0.959-11.853,4.028-14.29c1.874-0.916,4.11-1.521,6.184-1.531
					c27.845-0.137,55.69-0.166,83.535-0.174c17.615-0.005,35.231,0.054,52.846,0.123c3.21,0.013,6.174,0.892,8.547,3.199
					c5.304,5.155,3.827,12.855-2.126,16.333c-1.997,1.167-4.197,1.612-6.467,1.614C212.676,268.104,189.969,268.097,167.261,268.098
					z M167.706,267.021c0.673,0,1.212-0.001,1.752,0c19.947,0.034,39.894,0.075,59.841,0.095c2.609,0.003,5.222-0.029,7.826-0.172
					c4.26-0.235,8.362-3.728,8.968-7.517c0.758-4.738-1.438-8.908-5.951-10.549c-1.971-0.717-4.205-0.989-6.32-0.991
					c-21.552-0.017-43.104,0.063-64.655,0.118c-0.481,0.001-0.962,0.04-1.46,0.063C167.706,254.424,167.706,260.608,167.706,267.021
					z M166.578,248.003c-0.687,0-1.23,0.001-1.773,0c-19.995-0.035-39.99-0.077-59.985-0.098c-2.472-0.003-4.947,0.036-7.414,0.173
					c-4.276,0.238-8.419,3.662-8.98,7.493c-0.74,5.053,1.455,8.926,5.905,10.566c1.968,0.725,4.204,1.001,6.319,1.003
					c21.508,0.017,43.016-0.064,64.525-0.12c0.445-0.001,0.891-0.04,1.405-0.065C166.578,260.634,166.578,254.416,166.578,248.003z"
					/>
			</g>
		</g>
		<g>
			<g>
				<path style="fill:#AAF0F7;" d="M167.193,182.492c-7.752-0.02-14.034-6.378-13.99-14.159c0.043-7.623,6.359-13.924,13.954-13.921
					c7.865,0.003,14.172,6.324,14.127,14.16C181.24,176.251,174.903,182.511,167.193,182.492z"/>
			</g>
			<g>
				<path style="fill:#2D6D7C;" d="M169.171,183.594c-1.285,0-2.57,0-3.855,0c-0.257-0.085-0.508-0.198-0.772-0.251
					c-5.204-1.052-8.952-3.976-11.128-8.813c-0.592-1.315-0.885-2.764-1.316-4.152c0-1.285,0-2.57,0-3.855
					c0.103-0.393,0.211-0.784,0.308-1.178c1.389-5.625,4.774-9.444,10.282-11.32c0.857-0.292,1.75-0.481,2.626-0.718
					c1.285,0,2.57,0,3.855,0c0.257,0.085,0.507,0.199,0.77,0.252c5.262,1.062,9.015,4.044,11.191,8.934
					c0.568,1.276,0.844,2.683,1.254,4.029c0,1.285,0,2.57,0,3.855c-0.103,0.393-0.212,0.783-0.308,1.178
					c-1.297,5.362-4.486,9.098-9.631,11.108C171.395,183.076,170.265,183.289,169.171,183.594z M167.193,182.492
					c7.711,0.02,14.047-6.241,14.091-13.921c0.045-7.836-6.262-14.157-14.127-14.16c-7.595-0.003-13.91,6.298-13.954,13.921
					C153.158,176.114,159.44,182.472,167.193,182.492z"/>
			</g>
		</g>
		<g>
			<g>
				<path style="fill:#FFFFFF;" d="M170.539,162.462c-0.033-0.006-0.065-0.012-0.098-0.017c-0.028-0.549-0.014-1.104-0.091-1.646
					c-0.231-1.643-1.618-2.985-3.098-3.039c-1.486-0.054-2.991,1.353-3.237,3.041c-0.046,0.316-0.088,0.645-0.055,0.96
					c0.274,2.595,0.492,5.2,0.88,7.779c0.24,1.597,1.209,2.429,2.416,2.352c1.45-0.092,2.086-1.086,2.289-2.354
					C169.922,167.186,170.212,164.821,170.539,162.462z M167.247,172.879c-2.275-0.005-3.286,0.901-3.279,2.937
					c0.007,1.779,1.513,3.335,3.223,3.329c1.719-0.005,3.208-1.556,3.209-3.342C170.402,173.812,169.401,172.884,167.247,172.879z"
					/>
			</g>
			<g>
				<path style="fill:#F6FCFD;" d="M169.61,162.044c-0.358,2.401-0.699,4.805-1.085,7.201c-0.12,0.743-0.366,1.446-1.36,1.435
					c-0.998-0.011-1.233-0.741-1.327-1.471c-0.346-2.678-0.725-5.358-0.901-8.05c-0.098-1.505,1.058-2.641,2.267-2.625
					c1.219,0.017,2.173,1.133,2.268,2.666c0.017,0.274,0.002,0.55,0.002,0.826C169.52,162.032,169.565,162.038,169.61,162.044z"/>
			</g>
			<g>
				<path style="fill:#F6FCFD;" d="M169.51,175.736c-0.012,1.366-0.989,2.35-2.331,2.345c-1.343-0.004-2.315-0.992-2.32-2.357
					c-0.006-1.531,0.656-2.061,2.538-2.035C168.9,173.711,169.522,174.313,169.51,175.736z"/>
			</g>
			<g>
				<path style="fill:#2D6D7C;" d="M170.539,162.462c-0.327,2.359-0.617,4.724-0.994,7.076c-0.203,1.267-0.838,2.262-2.289,2.354
					c-1.207,0.077-2.176-0.756-2.416-2.352c-0.388-2.579-0.606-5.183-0.88-7.779c-0.033-0.315,0.009-0.643,0.055-0.96
					c0.246-1.688,1.751-3.096,3.237-3.041c1.481,0.054,2.868,1.396,3.098,3.039c0.076,0.542,0.063,1.097,0.091,1.646
					C170.474,162.45,170.506,162.456,170.539,162.462z M169.61,162.044c-0.045-0.006-0.09-0.012-0.136-0.018
					c0-0.275,0.015-0.551-0.002-0.826c-0.095-1.533-1.049-2.65-2.268-2.666c-1.21-0.016-2.366,1.12-2.267,2.625
					c0.176,2.692,0.555,5.372,0.901,8.05c0.094,0.731,0.329,1.461,1.327,1.471c0.994,0.011,1.24-0.692,1.36-1.435
					C168.911,166.849,169.252,164.445,169.61,162.044z"/>
			</g>
			<g>
				<path style="fill:#2D6D7C;" d="M167.247,172.879c2.154,0.005,3.155,0.933,3.153,2.924c-0.001,1.786-1.491,3.337-3.209,3.342
					c-1.71,0.005-3.216-1.55-3.223-3.329C163.961,173.78,164.973,172.874,167.247,172.879z M169.51,175.736
					c0.012-1.423-0.61-2.025-2.113-2.046c-1.883-0.027-2.544,0.503-2.538,2.035c0.005,1.365,0.977,2.353,2.32,2.357
					C168.52,178.086,169.498,177.102,169.51,175.736z"/>
			</g>
		</g>
	</g>
	<g>
		<g>
			<g>
				<path style="fill:#D0EFF7;" d="M484.547,129.704H347.429c-6.911,0-12.513-5.602-12.513-12.513V69.353
					c0-6.948,5.633-12.581,12.581-12.581h137.049c6.911,0,12.513,5.602,12.513,12.513v47.906
					C497.06,124.102,491.458,129.704,484.547,129.704z"/>
			</g>
			<g>
				<path style="fill:#2D6D7C;" d="M484.82,130.134H347.156c-6.986,0-12.67-5.684-12.67-12.671V69.012
					c0-6.987,5.683-12.671,12.67-12.671H484.82c6.986,0,12.671,5.684,12.671,12.671v48.452
					C497.49,124.45,491.806,130.134,484.82,130.134z M347.156,57.202c-6.511,0-11.809,5.298-11.809,11.81v48.452
					c0,6.512,5.298,11.81,11.809,11.81H484.82c6.512,0,11.81-5.298,11.81-11.81V69.012c0-6.512-5.298-11.81-11.81-11.81H347.156z"/>
			</g>
		</g>
		<g>
			<g>
				<path style="fill:#FFFFFF;" d="M416.007,157.018c22.707,0,45.414,0.007,68.122-0.011c2.27-0.002,4.469-0.447,6.467-1.614
					c5.954-3.478,7.43-11.178,2.126-16.333c-2.374-2.307-5.337-3.186-8.547-3.199c-17.615-0.069-35.23-0.128-52.846-0.123
					c-27.845,0.008-55.691,0.037-83.535,0.174c-2.074,0.01-4.31,0.615-6.184,1.531c-4.986,2.437-7.46,8.93-4.028,14.29
					c2.379,3.715,5.949,5.254,10.166,5.263C370.5,157.046,393.253,157.021,416.007,157.018z"/>
			</g>
			<g>
				<path style="fill:#80C8F9;" d="M416.451,155.943c0-6.413,0-12.597,0-18.954c0.498-0.022,0.979-0.061,1.46-0.063
					c21.552-0.056,43.104-0.136,64.655-0.118c2.115,0.002,4.349,0.274,6.32,0.991c4.513,1.641,6.709,5.811,5.951,10.549
					c-0.606,3.789-4.708,7.282-8.968,7.517c-2.604,0.144-5.217,0.175-7.826,0.172c-19.947-0.02-39.894-0.061-59.841-0.095
					C417.663,155.942,417.124,155.943,416.451,155.943z"/>
			</g>
			<g>
				<path style="fill:#80C8F9;" d="M415.323,136.924c0,6.414,0,12.632,0,18.951c-0.514,0.025-0.959,0.064-1.405,0.065
					c-21.508,0.056-43.016,0.137-64.525,0.12c-2.115-0.002-4.351-0.278-6.319-1.003c-4.45-1.64-6.645-5.512-5.905-10.566
					c0.561-3.831,4.704-7.255,8.98-7.493c2.467-0.137,4.943-0.176,7.414-0.173c19.995,0.021,39.99,0.063,59.985,0.098
					C414.093,136.925,414.636,136.924,415.323,136.924z"/>
			</g>
			<g>
				<path style="fill:#2D6D7C;" d="M416.007,157.02c-22.753,0.001-45.506,0.027-68.259-0.022c-4.216-0.009-7.787-1.548-10.166-5.263
					c-3.432-5.361-0.959-11.853,4.028-14.29c1.874-0.916,4.11-1.521,6.184-1.531c27.845-0.137,55.69-0.166,83.535-0.174
					c17.615-0.005,35.231,0.054,52.846,0.123c3.21,0.013,6.173,0.892,8.547,3.199c5.304,5.155,3.827,12.855-2.126,16.333
					c-1.997,1.167-4.197,1.612-6.467,1.614C461.421,157.026,438.714,157.018,416.007,157.02z M416.451,155.943
					c0.673,0,1.212-0.001,1.752,0c19.947,0.034,39.894,0.075,59.841,0.095c2.609,0.003,5.222-0.029,7.826-0.172
					c4.26-0.235,8.362-3.728,8.968-7.517c0.758-4.739-1.438-8.908-5.951-10.549c-1.971-0.717-4.205-0.989-6.32-0.991
					c-21.552-0.017-43.103,0.063-64.655,0.118c-0.481,0.001-0.962,0.04-1.46,0.063C416.451,143.346,416.451,149.53,416.451,155.943z
					 M415.323,136.924c-0.687,0-1.23,0.001-1.773,0c-19.995-0.035-39.99-0.077-59.985-0.098c-2.472-0.003-4.947,0.036-7.414,0.173
					c-4.276,0.238-8.419,3.662-8.98,7.493c-0.74,5.053,1.455,8.926,5.905,10.566c1.968,0.725,4.204,1.001,6.319,1.003
					c21.508,0.017,43.016-0.064,64.525-0.12c0.445-0.001,0.891-0.04,1.405-0.065C415.323,149.556,415.323,143.338,415.323,136.924z"
					/>
			</g>
		</g>
		<g>
			<g>
				<path style="fill:#AAF0F7;" d="M415.938,71.414c-7.752-0.02-14.034-6.378-13.99-14.159c0.043-7.623,6.358-13.924,13.953-13.921
					c7.865,0.003,14.172,6.324,14.127,14.16C429.985,65.173,423.648,71.433,415.938,71.414z"/>
			</g>
			<g>
				<path style="fill:#2D6D7C;" d="M417.916,72.516c-1.285,0-2.57,0-3.855,0c-0.257-0.085-0.508-0.198-0.772-0.251
					c-5.204-1.052-8.952-3.976-11.128-8.813c-0.592-1.315-0.885-2.764-1.316-4.152c0-1.285,0-2.57,0-3.855
					c0.103-0.393,0.211-0.784,0.308-1.178c1.389-5.625,4.774-9.444,10.282-11.32c0.857-0.292,1.75-0.481,2.626-0.718
					c1.285,0,2.57,0,3.855,0c0.257,0.085,0.507,0.199,0.77,0.252c5.262,1.062,9.015,4.044,11.191,8.934
					c0.568,1.276,0.844,2.683,1.254,4.029c0,1.285,0,2.57,0,3.855c-0.103,0.393-0.212,0.784-0.308,1.178
					c-1.297,5.362-4.486,9.098-9.631,11.108C420.14,71.997,419.01,72.211,417.916,72.516z M415.938,71.414
					c7.711,0.02,14.047-6.24,14.091-13.921c0.045-7.836-6.262-14.157-14.127-14.16c-7.595-0.003-13.91,6.298-13.953,13.921
					C401.904,65.036,408.185,71.394,415.938,71.414z"/>
			</g>
		</g>
		<g>
			<g>
				<path style="fill:#FFFFFF;" d="M419.284,51.384c-0.033-0.006-0.065-0.012-0.098-0.017c-0.028-0.549-0.014-1.104-0.091-1.646
					c-0.231-1.643-1.618-2.985-3.099-3.039c-1.486-0.054-2.991,1.353-3.237,3.041c-0.046,0.316-0.089,0.645-0.055,0.96
					c0.274,2.595,0.492,5.2,0.88,7.779c0.24,1.597,1.209,2.429,2.416,2.352c1.45-0.092,2.086-1.086,2.289-2.354
					C418.667,56.108,418.957,53.743,419.284,51.384z M415.993,61.801c-2.275-0.005-3.286,0.901-3.279,2.937
					c0.007,1.779,1.513,3.335,3.223,3.329c1.719-0.005,3.208-1.556,3.21-3.342C419.148,62.734,418.146,61.806,415.993,61.801z"/>
			</g>
			<g>
				<path style="fill:#F6FCFD;" d="M418.355,50.966c-0.358,2.401-0.699,4.805-1.085,7.201c-0.12,0.743-0.366,1.446-1.36,1.435
					c-0.999-0.011-1.233-0.741-1.327-1.472c-0.346-2.678-0.725-5.358-0.901-8.05c-0.098-1.505,1.058-2.641,2.267-2.625
					c1.219,0.017,2.173,1.133,2.268,2.666c0.017,0.274,0.002,0.55,0.002,0.826C418.265,50.954,418.31,50.96,418.355,50.966z"/>
			</g>
			<g>
				<path style="fill:#F6FCFD;" d="M418.255,64.658c-0.012,1.366-0.989,2.35-2.331,2.345c-1.343-0.004-2.315-0.992-2.32-2.357
					c-0.006-1.531,0.656-2.061,2.538-2.035C417.645,62.632,418.267,63.235,418.255,64.658z"/>
			</g>
			<g>
				<path style="fill:#2D6D7C;" d="M419.284,51.384c-0.327,2.359-0.617,4.724-0.994,7.076c-0.203,1.267-0.838,2.262-2.289,2.354
					c-1.207,0.077-2.176-0.756-2.416-2.352c-0.388-2.579-0.606-5.183-0.88-7.779c-0.033-0.315,0.009-0.643,0.055-0.96
					c0.246-1.688,1.751-3.096,3.237-3.041c1.481,0.054,2.868,1.396,3.099,3.039c0.076,0.542,0.063,1.097,0.091,1.646
					C419.219,51.372,419.251,51.378,419.284,51.384z M418.355,50.966c-0.045-0.006-0.091-0.012-0.136-0.018
					c0-0.275,0.015-0.551-0.002-0.826c-0.095-1.533-1.048-2.649-2.268-2.666c-1.21-0.016-2.366,1.12-2.267,2.625
					c0.176,2.692,0.555,5.372,0.901,8.05c0.094,0.731,0.329,1.461,1.327,1.472c0.994,0.011,1.24-0.692,1.36-1.435
					C417.657,55.771,417.997,53.367,418.355,50.966z"/>
			</g>
			<g>
				<path style="fill:#2D6D7C;" d="M415.993,61.801c2.154,0.005,3.155,0.933,3.154,2.924c-0.001,1.786-1.491,3.337-3.21,3.342
					c-1.71,0.005-3.216-1.55-3.223-3.329C412.706,62.702,413.718,61.796,415.993,61.801z M418.255,64.658
					c0.012-1.423-0.61-2.025-2.113-2.046c-1.883-0.027-2.544,0.503-2.538,2.035c0.005,1.365,0.977,2.353,2.32,2.357
					C417.266,67.008,418.243,66.024,418.255,64.658z"/>
			</g>
		</g>
	</g>
	<g>
		<g>
			<g>
				<path style="fill:#D0EFF7;" d="M468.188,301.41H360.783c-6.639,0-12.022-5.382-12.022-12.022v-87.414
					c0-7.317,5.931-13.248,13.248-13.248h106.178c6.64,0,12.022,5.382,12.022,12.022v88.64
					C480.21,296.028,474.827,301.41,468.188,301.41z"/>
			</g>
			<g>
				<path style="fill:#2D6D7C;" d="M467.97,301.84H361.001c-6.986,0-12.671-5.683-12.671-12.67v-88.204
					c0-6.987,5.684-12.671,12.671-12.671H467.97c6.986,0,12.669,5.684,12.669,12.671v88.204
					C480.639,296.157,474.956,301.84,467.97,301.84z M361.001,189.156c-6.512,0-11.81,5.298-11.81,11.81v88.204
					c0,6.511,5.298,11.809,11.81,11.809H467.97c6.511,0,11.809-5.298,11.809-11.809v-88.204c0-6.512-5.298-11.81-11.809-11.81
					H361.001z"/>
			</g>
		</g>
		<g>
			<g>
				<path style="fill:#FFFFFF;" d="M414.503,329.582c22.707,0,45.414,0.007,68.122-0.011c2.27-0.002,4.469-0.447,6.467-1.614
					c5.954-3.478,7.43-11.178,2.126-16.333c-2.374-2.307-5.337-3.186-8.547-3.199c-17.615-0.069-35.23-0.128-52.846-0.123
					c-27.845,0.008-55.691,0.037-83.535,0.174c-2.074,0.01-4.31,0.615-6.184,1.531c-4.986,2.437-7.46,8.93-4.028,14.29
					c2.379,3.715,5.949,5.254,10.166,5.263C368.997,329.61,391.75,329.584,414.503,329.582z"/>
			</g>
			<g>
				<path style="fill:#80C8F9;" d="M414.948,328.507c0-6.413,0-12.597,0-18.953c0.498-0.022,0.979-0.061,1.46-0.063
					c21.552-0.056,43.104-0.136,64.655-0.118c2.115,0.002,4.349,0.274,6.32,0.991c4.513,1.641,6.709,5.811,5.951,10.55
					c-0.606,3.789-4.708,7.282-8.968,7.517c-2.604,0.144-5.217,0.175-7.826,0.172c-19.947-0.02-39.894-0.061-59.841-0.095
					C416.16,328.506,415.62,328.507,414.948,328.507z"/>
			</g>
			<g>
				<path style="fill:#80C8F9;" d="M413.82,309.488c0,6.414,0,12.632,0,18.951c-0.514,0.025-0.959,0.064-1.405,0.065
					c-21.508,0.056-43.016,0.138-64.525,0.12c-2.115-0.002-4.351-0.278-6.319-1.003c-4.45-1.64-6.645-5.512-5.905-10.566
					c0.561-3.831,4.704-7.255,8.98-7.493c2.467-0.137,4.943-0.176,7.414-0.173c19.995,0.021,39.99,0.063,59.985,0.098
					C412.59,309.489,413.133,309.488,413.82,309.488z"/>
			</g>
			<g>
				<path style="fill:#2D6D7C;" d="M414.503,329.583c-22.753,0.001-45.506,0.027-68.259-0.022
					c-4.216-0.009-7.787-1.548-10.166-5.263c-3.432-5.361-0.959-11.853,4.028-14.29c1.874-0.916,4.11-1.521,6.184-1.531
					c27.845-0.137,55.69-0.166,83.535-0.174c17.615-0.005,35.231,0.054,52.846,0.123c3.21,0.012,6.173,0.891,8.547,3.199
					c5.304,5.155,3.827,12.855-2.126,16.333c-1.997,1.167-4.197,1.612-6.467,1.614C459.918,329.59,437.211,329.582,414.503,329.583z
					 M414.948,328.507c0.672,0,1.212-0.001,1.752,0c19.947,0.034,39.894,0.075,59.841,0.095c2.609,0.003,5.222-0.029,7.826-0.172
					c4.26-0.235,8.362-3.728,8.968-7.517c0.758-4.739-1.438-8.908-5.951-10.55c-1.971-0.717-4.205-0.989-6.32-0.991
					c-21.552-0.017-43.104,0.063-64.655,0.118c-0.481,0.001-0.962,0.041-1.46,0.063C414.948,315.91,414.948,322.094,414.948,328.507
					z M413.82,309.488c-0.687,0-1.23,0.001-1.773,0c-19.995-0.035-39.99-0.077-59.985-0.098c-2.472-0.003-4.947,0.036-7.414,0.173
					c-4.276,0.238-8.419,3.662-8.98,7.493c-0.74,5.053,1.455,8.926,5.905,10.566c1.968,0.725,4.204,1.001,6.319,1.003
					c21.508,0.018,43.016-0.064,64.525-0.12c0.445-0.001,0.891-0.04,1.405-0.065C413.82,322.12,413.82,315.902,413.82,309.488z"/>
			</g>
		</g>
		<g>
			<g>
				<path style="fill:#AAF0F7;" d="M414.434,202.767c-7.752-0.02-14.034-6.377-13.99-14.159c0.043-7.623,6.358-13.924,13.953-13.921
					c7.865,0.003,14.172,6.324,14.127,14.16C428.482,196.526,422.145,202.786,414.434,202.767z"/>
			</g>
		</g>
		<g>
			<path style="fill:#F6FCFD;" d="M424.734,184.424c-2.097-4.664-8.101-7.579-13.053-6.092c-0.115,0.035-0.181,0.105-0.213,0.186
				c-4.512,1.196-7.834,5.163-8.097,9.84c-0.274,4.88,2.92,8.917,7.394,10.501c3.005,1.064,6.548,0.83,9.34-0.721
				C424.822,195.515,426.956,189.366,424.734,184.424z"/>
			<g>
				<path style="fill:#2D6D7C;" d="M424.964,184.327c-2.144-4.769-8.283-7.749-13.347-6.229c-5.062,1.519-8.238,5.638-8.497,10.251
					c-0.28,4.99,2.986,9.117,7.56,10.737c3.073,1.088,6.695,0.849,9.55-0.737C425.054,195.668,427.236,189.38,424.964,184.327z
					 M420.961,196.644c-5.847,4.578-15.586,1.309-16.829-6.205c-0.916-5.539,3.195-10.721,7.725-11.467
					c4.26-0.7,8.887,0.719,11.388,4.409C426.104,187.601,424.923,193.542,420.961,196.644z"/>
				<path style="fill:#2D6D7C;" d="M412.411,181.039c-3.489,1.05-5.95,3.926-6.146,7.415c-0.203,3.609,2.16,6.595,5.469,7.766
					c2.223,0.787,4.843,0.614,6.908-0.533c3.489-1.939,5.068-6.488,3.424-10.143C420.514,182.095,416.074,179.939,412.411,181.039z
					 M419.062,194.322c-4.133,3.235-11.016,0.925-11.894-4.385c-1.265-7.649,9.036-11.588,13.508-4.988
					C422.697,187.931,421.862,192.13,419.062,194.322z"/>
				<path style="fill:#2D6D7C;" d="M417.617,183.232c-0.742,0.912-1.55,1.77-2.288,2.685c-0.744,0.923-1.459,1.871-2.174,2.816
					c-0.003,0.003,0.001,0.009-0.002,0.012c-0.217,0.149-0.305,0.452-0.166,0.682c0.385,0.637,0.796,1.259,1.232,1.863
					c0.225,0.311,0.457,0.618,0.694,0.92c0.115,0.147,0.231,0.292,0.349,0.437c0.133,0.163,0.263,0.371,0.457,0.463
					c0.184,0.087,0.388,0.094,0.555-0.039c0.154-0.123,0.235-0.329,0.179-0.525c-0.065-0.226-0.237-0.389-0.384-0.566
					c-0.112-0.135-0.222-0.271-0.331-0.408c-0.217-0.272-0.426-0.549-0.634-0.835c-0.367-0.505-0.707-1.029-1.038-1.559
					c0.667-0.898,1.351-1.782,2.023-2.676c0.688-0.913,1.326-1.865,2.048-2.752C418.43,183.388,417.915,182.867,417.617,183.232z"/>
			</g>
		</g>
		<g>
			<path style="fill:#2D6D7C;" d="M416.412,203.87c-1.285,0-2.57,0-3.855,0c-0.257-0.085-0.508-0.198-0.772-0.251
				c-5.204-1.052-8.952-3.976-11.128-8.813c-0.592-1.315-0.885-2.764-1.316-4.152c0-1.285,0-2.57,0-3.854
				c0.103-0.393,0.211-0.784,0.308-1.178c1.389-5.625,4.774-9.444,10.282-11.32c0.857-0.292,1.75-0.481,2.626-0.717
				c1.285,0,2.57,0,3.855,0c0.257,0.085,0.507,0.199,0.77,0.252c5.262,1.061,9.015,4.044,11.191,8.934
				c0.568,1.276,0.844,2.683,1.254,4.029c0,1.285,0,2.57,0,3.854c-0.103,0.393-0.212,0.784-0.308,1.178
				c-1.296,5.362-4.486,9.098-9.631,11.108C418.637,203.351,417.507,203.565,416.412,203.87z M414.434,202.767
				c7.711,0.02,14.047-6.24,14.091-13.921c0.045-7.836-6.262-14.157-14.127-14.16c-7.595-0.003-13.91,6.298-13.954,13.921
				C400.4,196.39,406.682,202.748,414.434,202.767z"/>
		</g>
		<g>
			<path style="fill:#80C8F9;" d="M459.738,237.028h-90.507c-0.214,0-0.388-0.174-0.388-0.388c0-0.214,0.174-0.388,0.388-0.388
				h90.507c0.214,0,0.388,0.174,0.388,0.388C460.126,236.855,459.952,237.028,459.738,237.028z"/>
		</g>
		<g>
			<path style="fill:#80C8F9;" d="M459.738,252.357h-90.507c-0.214,0-0.388-0.174-0.388-0.388c0-0.214,0.174-0.388,0.388-0.388
				h90.507c0.214,0,0.388,0.174,0.388,0.388C460.126,252.183,459.952,252.357,459.738,252.357z"/>
		</g>
		<g>
			<path style="fill:#80C8F9;" d="M459.738,267.685h-90.507c-0.214,0-0.388-0.174-0.388-0.388c0-0.214,0.174-0.388,0.388-0.388
				h90.507c0.214,0,0.388,0.174,0.388,0.388C460.126,267.511,459.952,267.685,459.738,267.685z"/>
		</g>
		<g>
			<path style="fill:#80C8F9;" d="M459.738,283.014h-90.507c-0.214,0-0.388-0.174-0.388-0.388c0-0.214,0.174-0.388,0.388-0.388
				h90.507c0.214,0,0.388,0.174,0.388,0.388C460.126,282.841,459.952,283.014,459.738,283.014z"/>
		</g>
	</g>
	<g>
		<g>
			<g>
				<path style="fill:#D0EFF7;" d="M487.078,425.73H350.431c-6.633,0-12.01-5.377-12.01-12.01v-44.267
					c0-6.633,5.377-12.01,12.01-12.01h136.647c6.633,0,12.01,5.377,12.01,12.01v44.267
					C499.089,420.353,493.711,425.73,487.078,425.73z"/>
			</g>
			<g>
				<path style="fill:#2D6D7C;" d="M486.848,426.161H350.661c-6.986,0-12.671-5.685-12.671-12.671v-43.807
					c0-6.986,5.684-12.671,12.671-12.671h136.187c6.986,0,12.671,5.684,12.671,12.671v43.807
					C499.519,420.477,493.835,426.161,486.848,426.161z M350.661,357.873c-6.512,0-11.81,5.298-11.81,11.81v43.807
					c0,6.512,5.298,11.81,11.81,11.81h136.187c6.512,0,11.81-5.298,11.81-11.81v-43.807c0-6.512-5.298-11.81-11.81-11.81H350.661z"
					/>
			</g>
		</g>
		<g>
			<g>
				<path style="fill:#FFFFFF;" d="M418.773,457.76c22.707,0,45.414,0.007,68.122-0.011c2.27-0.002,4.469-0.447,6.467-1.614
					c5.954-3.478,7.43-11.178,2.126-16.333c-2.374-2.307-5.337-3.187-8.547-3.199c-17.615-0.069-35.23-0.128-52.846-0.123
					c-27.845,0.008-55.691,0.037-83.535,0.174c-2.074,0.01-4.31,0.615-6.184,1.531c-4.986,2.437-7.46,8.93-4.028,14.29
					c2.379,3.715,5.949,5.254,10.166,5.263C373.267,457.788,396.02,457.763,418.773,457.76z"/>
			</g>
			<g>
				<path style="fill:#80C8F9;" d="M419.217,456.685c0-6.413,0-12.597,0-18.953c0.498-0.022,0.979-0.061,1.46-0.063
					c21.552-0.056,43.104-0.136,64.655-0.118c2.115,0.002,4.349,0.274,6.32,0.991c4.513,1.641,6.709,5.811,5.951,10.549
					c-0.606,3.789-4.708,7.282-8.968,7.517c-2.604,0.144-5.217,0.175-7.826,0.172c-19.947-0.02-39.894-0.061-59.841-0.095
					C420.43,456.684,419.89,456.685,419.217,456.685z"/>
			</g>
			<g>
				<path style="fill:#80C8F9;" d="M418.089,437.666c0,6.414,0,12.632,0,18.951c-0.514,0.025-0.959,0.064-1.405,0.065
					c-21.508,0.057-43.016,0.138-64.524,0.12c-2.115-0.002-4.351-0.278-6.319-1.003c-4.45-1.64-6.645-5.512-5.905-10.566
					c0.561-3.831,4.704-7.255,8.98-7.493c2.467-0.137,4.943-0.175,7.414-0.173c19.995,0.021,39.99,0.063,59.985,0.098
					C416.86,437.667,417.403,437.666,418.089,437.666z"/>
			</g>
			<g>
				<path style="fill:#2D6D7C;" d="M418.773,457.762c-22.753,0.001-45.506,0.027-68.259-0.022
					c-4.217-0.009-7.787-1.548-10.166-5.263c-3.432-5.361-0.959-11.853,4.028-14.29c1.874-0.916,4.11-1.521,6.184-1.531
					c27.845-0.137,55.69-0.166,83.535-0.174c17.615-0.005,35.231,0.054,52.846,0.123c3.21,0.012,6.173,0.892,8.547,3.199
					c5.304,5.155,3.827,12.855-2.126,16.333c-1.997,1.167-4.197,1.612-6.467,1.614C464.188,457.768,441.48,457.76,418.773,457.762z
					 M419.217,456.685c0.672,0,1.212-0.001,1.752,0c19.947,0.034,39.894,0.075,59.841,0.095c2.609,0.003,5.222-0.029,7.826-0.172
					c4.26-0.235,8.362-3.728,8.968-7.517c0.758-4.739-1.438-8.908-5.951-10.549c-1.971-0.717-4.205-0.989-6.32-0.991
					c-21.552-0.017-43.104,0.063-64.655,0.118c-0.481,0.001-0.962,0.04-1.46,0.063C419.217,444.088,419.217,450.272,419.217,456.685
					z M418.089,437.666c-0.687,0-1.23,0.001-1.773,0c-19.995-0.035-39.99-0.077-59.985-0.098c-2.472-0.003-4.947,0.036-7.414,0.173
					c-4.276,0.238-8.419,3.662-8.98,7.493c-0.74,5.053,1.455,8.926,5.905,10.566c1.968,0.725,4.204,1.001,6.319,1.003
					c21.508,0.017,43.016-0.064,64.524-0.12c0.446-0.001,0.891-0.04,1.405-0.065C418.089,450.298,418.089,444.08,418.089,437.666z"
					/>
			</g>
		</g>
		<g>
			<g>
				<path style="fill:#AAF0F7;" d="M349.579,378.556c-7.752-0.02-14.034-6.378-13.99-14.159c0.044-7.623,6.359-13.924,13.954-13.921
					c7.865,0.003,14.172,6.324,14.127,14.16C363.626,372.316,357.289,378.576,349.579,378.556z"/>
			</g>
			<g>
				<path style="fill:#F6FCFD;" d="M358.801,357.427c-0.708-2.304-2.944-3.472-5.333-3.229c-1.977,0.201-2.66,1.714-3.597,3.048
					c-0.772,1.1-0.272,2.637,1.004,3.059c0.766,0.254,1.489,0.542,1.815,0.976c0.695,0.925,0.465,2.216-0.104,3.135
					c-0.643,1.038-1.713,1.898-2.735,2.543c-1.137,0.717-2.319,1.062-3.516,0.293c-0.931-0.599-1.786-1.026-2.919-0.727
					c-1.073,0.283-1.991,1.063-2.608,1.965c-1.22,1.783-0.574,4.172,1.112,5.41c1.919,1.41,4.507,1.116,6.547,0.157
					c2.128-1,4.057-2.651,5.669-4.352c1.529-1.612,2.832-3.434,3.74-5.462C358.797,362.184,359.495,359.688,358.801,357.427z"/>
				<path style="fill:#2D6D7C;" d="M358.801,357.427c-0.708-2.304-2.944-3.472-5.333-3.229c-1.977,0.201-2.66,1.714-3.597,3.048
					c-0.772,1.1-0.272,2.637,1.004,3.06c0.766,0.253,1.489,0.542,1.815,0.975c0.695,0.925,0.465,2.216-0.104,3.135
					c-0.643,1.038-1.712,1.898-2.735,2.543c-1.137,0.717-2.32,1.062-3.516,0.293c-0.931-0.599-1.786-1.026-2.919-0.727
					c-1.073,0.283-1.991,1.063-2.608,1.965c-1.22,1.783-0.574,4.172,1.112,5.41c1.919,1.41,4.507,1.116,6.547,0.157
					c2.128-1,4.057-2.651,5.669-4.352c1.529-1.612,2.832-3.434,3.74-5.462C358.797,362.184,359.495,359.688,358.801,357.427z
					 M356.641,364.56c-0.984,1.921-2.322,3.629-3.872,5.13c-1.581,1.53-3.446,3.094-5.55,3.827
					c-1.974,0.687-4.572,0.502-5.687-1.518c-0.52-0.942-0.525-2.02,0.065-2.93c0.556-0.857,1.583-1.703,2.659-1.673
					c1.031,0.028,1.739,0.996,2.724,1.228c1.008,0.237,2.034-0.079,2.921-0.558c1.859-1.003,4.002-2.827,4.185-5.074
					c0.076-0.929-0.193-1.932-0.869-2.6c-0.417-0.412-0.937-0.616-1.468-0.801c-0.933-0.325-1.366-1.411-0.904-2.284
					c0.646-1.22,1.815-2.129,3.277-2.202c2.121-0.105,3.673,1.424,3.926,3.471C358.301,360.635,357.567,362.752,356.641,364.56z"/>
			</g>
			<g>
				<path style="fill:#2D6D7C;" d="M351.557,379.659c-1.285,0-2.57,0-3.854,0c-0.257-0.085-0.508-0.198-0.772-0.251
					c-5.204-1.052-8.952-3.976-11.128-8.813c-0.592-1.315-0.885-2.764-1.316-4.152c0-1.285,0-2.57,0-3.854
					c0.103-0.393,0.211-0.784,0.308-1.178c1.389-5.625,4.774-9.444,10.282-11.32c0.857-0.292,1.75-0.481,2.626-0.717
					c1.285,0,2.57,0,3.854,0c0.257,0.085,0.507,0.199,0.77,0.252c5.262,1.061,9.015,4.044,11.191,8.934
					c0.568,1.276,0.844,2.683,1.254,4.03c0,1.285,0,2.57,0,3.854c-0.103,0.393-0.212,0.784-0.308,1.178
					c-1.296,5.362-4.486,9.098-9.631,11.108C353.781,379.14,352.651,379.354,351.557,379.659z M349.579,378.556
					c7.711,0.02,14.047-6.241,14.091-13.921c0.045-7.836-6.262-14.157-14.127-14.16c-7.595-0.003-13.91,6.298-13.954,13.921
					C335.545,372.179,341.827,378.537,349.579,378.556z"/>
			</g>
		</g>
	</g>
	<g>
		<g>
			<path style="fill:#D0EFF7;" d="M670.704,433.8H565.7c-4.421,0-8.004-3.583-8.004-8.004v-59.331c0-4.42,3.583-8.004,8.004-8.004
				h105.004c4.42,0,8.004,3.584,8.004,8.004v59.331C678.708,430.217,675.125,433.8,670.704,433.8z"/>
			<path style="fill:#2D6D7C;" d="M670.424,434.266H565.981c-4.825,0-8.751-3.926-8.751-8.75v-58.771c0-4.824,3.926-8.75,8.75-8.75
				h104.444c4.824,0,8.75,3.926,8.75,8.75v58.771C679.174,430.341,675.248,434.266,670.424,434.266z M565.98,358.927
				c-4.311,0-7.818,3.507-7.818,7.818v58.771c0,4.311,3.507,7.818,7.819,7.818h104.443c4.311,0,7.818-3.507,7.818-7.818v-58.771
				c0-4.311-3.507-7.818-7.818-7.818H565.98z"/>
		</g>
		<g>
			<g>
				<path style="fill:#AAF0F7;" d="M576.188,373.495c-7.752-0.02-14.034-6.378-13.99-14.159c0.043-7.623,6.358-13.924,13.953-13.921
					c7.865,0.003,14.172,6.324,14.127,14.16C590.235,367.254,583.898,373.515,576.188,373.495z"/>
			</g>
			<g>
				<path style="fill:#F6FCFD;" d="M584.249,365.833c-1.592-0.657-1.969-2.553-2.017-4.045c-0.052-1.615,0.236-3.224,0.12-4.839
					c-0.1-1.396-0.483-2.817-1.488-3.872c-0.585-0.615-1.351-1.044-2.177-1.271c0.016-0.041,0.027-0.084,0.024-0.127
					c-0.081-1.209-1.037-2.315-2.289-2.544c-0.065-0.012-0.126-0.008-0.184,0.003c-0.058-0.011-0.119-0.015-0.184-0.003
					c-1.252,0.229-2.208,1.335-2.289,2.544c-0.003,0.044,0.008,0.087,0.024,0.127c-0.826,0.227-1.592,0.657-2.177,1.271
					c-1.006,1.056-1.388,2.476-1.488,3.872c-0.116,1.615,0.172,3.224,0.12,4.839c-0.048,1.492-0.425,3.388-2.017,4.045
					c-0.075,0.031-0.963,1.314-0.164,1.314h5.445c-0.103,0.093-0.151,0.23-0.118,0.377c0.284,1.241,1.469,2.175,2.774,2.26
					c0.026,0.002,0.049-0.009,0.074-0.013c0.025,0.004,0.049,0.015,0.074,0.013c1.305-0.085,2.489-1.019,2.773-2.26
					c0.034-0.147-0.015-0.283-0.118-0.377h5.445C585.212,367.147,584.324,365.864,584.249,365.833z"/>
				<path style="fill:#2D6D7C;" d="M584.249,365.833c-1.592-0.657-1.969-2.553-2.017-4.045c-0.052-1.615,0.236-3.224,0.12-4.839
					c-0.1-1.396-0.483-2.817-1.488-3.872c-0.585-0.615-1.351-1.044-2.177-1.271c0.016-0.041,0.027-0.084,0.024-0.128
					c-0.081-1.209-1.037-2.315-2.289-2.544c-0.065-0.012-0.126-0.008-0.184,0.003c-0.058-0.011-0.119-0.015-0.184-0.003
					c-1.252,0.229-2.208,1.335-2.289,2.544c-0.003,0.044,0.008,0.087,0.024,0.128c-0.826,0.227-1.592,0.657-2.177,1.271
					c-1.006,1.056-1.388,2.476-1.488,3.872c-0.116,1.615,0.172,3.224,0.12,4.839c-0.048,1.492-0.425,3.388-2.017,4.045
					c-0.075,0.031-0.963,1.314-0.164,1.314h5.445c-0.103,0.093-0.151,0.23-0.118,0.377c0.284,1.241,1.469,2.175,2.774,2.26
					c0.026,0.002,0.049-0.009,0.074-0.013c0.025,0.004,0.049,0.015,0.074,0.013c1.305-0.085,2.489-1.019,2.773-2.26
					c0.034-0.147-0.015-0.283-0.118-0.377h5.445C585.212,367.147,584.324,365.864,584.249,365.833z M578.318,367.32
					c-0.029,0.128-0.069,0.25-0.117,0.372c-0.004,0.01-0.003,0.009-0.005,0.013c-0.002,0.003-0.002,0.003-0.008,0.014
					c-0.015,0.029-0.029,0.059-0.044,0.087c-0.031,0.058-0.064,0.114-0.099,0.169c-0.035,0.055-0.074,0.109-0.112,0.162
					c-0.009,0.012-0.008,0.011-0.011,0.016c-0.003,0.004-0.002,0.002-0.009,0.01c-0.021,0.025-0.043,0.05-0.065,0.075
					c-0.085,0.094-0.177,0.183-0.274,0.264c-0.026,0.021-0.052,0.041-0.078,0.063c-0.022,0.017-0.018,0.014,0.014-0.01
					c-0.013,0.01-0.027,0.02-0.041,0.029c-0.054,0.038-0.11,0.075-0.168,0.109c-0.106,0.064-0.217,0.119-0.331,0.168
					c-0.015,0.006-0.034,0.014-0.042,0.017c-0.031,0.012-0.063,0.022-0.095,0.033c-0.064,0.021-0.129,0.039-0.194,0.054
					c-0.065,0.016-0.131,0.028-0.198,0.039c-0.01,0.002-0.009,0.002-0.013,0.003c-0.005,0-0.004,0-0.015,0.001
					c-0.034,0.002-0.067,0.006-0.101,0.008c-0.027,0.002-0.049,0.011-0.074,0.017c-0.025-0.005-0.048-0.015-0.074-0.017
					c-0.034-0.002-0.067-0.006-0.101-0.008c-0.011-0.001-0.01,0-0.015-0.001c-0.004-0.001-0.003-0.001-0.013-0.003
					c-0.066-0.011-0.133-0.023-0.198-0.039c-0.065-0.016-0.13-0.034-0.194-0.054c-0.032-0.01-0.064-0.021-0.095-0.033
					c-0.008-0.003-0.026-0.01-0.042-0.017c-0.114-0.05-0.225-0.105-0.331-0.168c-0.057-0.034-0.113-0.071-0.168-0.109
					c-0.014-0.01-0.027-0.019-0.041-0.029c0.032,0.023,0.036,0.027,0.014,0.01c-0.025-0.021-0.052-0.041-0.078-0.063
					c-0.098-0.082-0.19-0.17-0.274-0.264c-0.022-0.025-0.044-0.05-0.065-0.075c-0.006-0.008-0.005-0.006-0.009-0.01
					c-0.003-0.004-0.002-0.004-0.011-0.016c-0.039-0.053-0.077-0.107-0.112-0.162c-0.035-0.055-0.068-0.112-0.099-0.169
					c-0.015-0.029-0.029-0.058-0.044-0.087c-0.006-0.011-0.006-0.011-0.008-0.014c-0.002-0.005-0.001-0.004-0.005-0.013
					c-0.048-0.122-0.089-0.245-0.117-0.372c-0.016-0.069-0.062-0.125-0.117-0.173h2.121c0.029,0,0.05-0.01,0.075-0.015
					c0.026,0.005,0.047,0.015,0.075,0.015h2.121C578.379,367.195,578.333,367.251,578.318,367.32z M576.314,366.38
					c-0.029,0-0.05,0.01-0.075,0.015c-0.025-0.005-0.047-0.015-0.075-0.015h-7.312c1.186-0.61,1.8-1.906,2.035-3.135
					c0.304-1.587,0.083-3.192,0.019-4.789c-0.057-1.419,0.016-2.955,0.789-4.207c0.818-1.326,2.37-2.006,3.946-1.837
					c0.509,0.055,0.505-0.713,0-0.767c-0.358-0.038-0.719-0.035-1.076,0.005c0.002-0.022,0.004-0.044,0.005-0.066
					c0.001-0.009,0-0.007,0-0.012c0.001-0.004,0.001-0.002,0.002-0.009c0.012-0.061,0.023-0.121,0.038-0.181
					c0.016-0.06,0.034-0.119,0.054-0.177c0.01-0.029,0.021-0.058,0.032-0.087c0.002-0.006,0.012-0.026,0.019-0.04
					c0.053-0.105,0.106-0.209,0.172-0.307c0.029-0.043,0.06-0.085,0.091-0.126c0.004-0.005,0.031-0.039,0.036-0.045
					c0.021-0.024,0.042-0.047,0.063-0.07c0.086-0.092,0.178-0.178,0.277-0.257c0.01-0.008,0.044-0.033,0.048-0.036
					c0.017-0.012,0.033-0.024,0.05-0.035c0.053-0.035,0.107-0.068,0.162-0.099c0.055-0.031,0.112-0.06,0.169-0.087
					c0.02-0.009,0.041-0.018,0.061-0.027c0.012-0.004,0.023-0.009,0.035-0.013c0.116-0.042,0.236-0.072,0.358-0.096
					c0.122,0.024,0.242,0.054,0.358,0.096c0.012,0.004,0.023,0.009,0.035,0.013c0.02,0.009,0.041,0.018,0.061,0.027
					c0.058,0.027,0.114,0.056,0.169,0.087c0.055,0.031,0.109,0.064,0.162,0.099c0.017,0.011,0.034,0.023,0.05,0.035
					c0.003,0.003,0.037,0.027,0.048,0.036c0.099,0.079,0.192,0.165,0.277,0.257c0.021,0.023,0.042,0.047,0.063,0.07
					c0.005,0.006,0.032,0.04,0.036,0.045c0.031,0.042,0.062,0.083,0.091,0.126c0.066,0.099,0.119,0.202,0.172,0.307
					c0.007,0.014,0.016,0.035,0.019,0.04c0.011,0.029,0.022,0.058,0.032,0.087c0.02,0.058,0.038,0.117,0.054,0.177
					c0.015,0.06,0.027,0.12,0.038,0.181c0.001,0.007,0.001,0.005,0.002,0.009c0,0.005,0,0.003,0,0.012
					c0.002,0.022,0.004,0.044,0.005,0.066c-0.357-0.04-0.718-0.044-1.076-0.005c-0.505,0.054-0.509,0.822,0,0.767
					c1.576-0.17,3.128,0.511,3.946,1.837c0.773,1.253,0.846,2.788,0.789,4.207c-0.064,1.597-0.285,3.202,0.019,4.789
					c0.235,1.229,0.849,2.525,2.035,3.135H576.314z"/>
			</g>
			<g>
				<path style="fill:#2D6D7C;" d="M578.165,374.598c-1.285,0-2.57,0-3.855,0c-0.257-0.085-0.508-0.198-0.772-0.251
					c-5.204-1.052-8.952-3.977-11.128-8.813c-0.592-1.315-0.885-2.764-1.316-4.152c0-1.285,0-2.57,0-3.855
					c0.103-0.393,0.211-0.784,0.308-1.178c1.389-5.625,4.774-9.444,10.282-11.32c0.857-0.292,1.75-0.481,2.626-0.718
					c1.285,0,2.57,0,3.855,0c0.257,0.085,0.507,0.199,0.77,0.252c5.262,1.061,9.015,4.044,11.191,8.934
					c0.568,1.277,0.844,2.683,1.254,4.03c0,1.285,0,2.57,0,3.855c-0.103,0.392-0.212,0.783-0.308,1.178
					c-1.297,5.362-4.486,9.098-9.631,11.108C580.39,374.079,579.26,374.293,578.165,374.598z M576.188,373.495
					c7.711,0.02,14.047-6.241,14.091-13.921c0.045-7.836-6.262-14.157-14.127-14.16c-7.595-0.003-13.91,6.298-13.953,13.921
					C562.154,367.117,568.435,373.475,576.188,373.495z"/>
			</g>
		</g>
		<g>
			<g>
				<path style="fill:#80C8F9;" d="M618.127,456.682c0-5.062,0-9.959,0-15.108c2.175,0,4.314,0.003,6.453,0
					c9.772-0.013,19.544-0.042,29.317-0.025c1.136,0.002,2.294,0.157,3.404,0.408c3.682,0.831,6.264,3.951,6.15,7.319
					c-0.122,3.596-2.855,6.601-6.633,7.209c-1.172,0.188-2.371,0.292-3.557,0.291c-11.148-0.014-22.296-0.058-33.445-0.094
					C619.279,456.68,618.742,456.682,618.127,456.682z"/>
			</g>
			<g>
				<path style="fill:#80C8F9;" d="M616.881,441.72c0,5.02,0,9.876,0,15.049c-1.782,0-3.505-0.001-5.227,0
					c-10.136,0.007-20.271,0.031-30.407-0.001c-1.224-0.004-2.482-0.184-3.663-0.506c-3.523-0.962-5.874-3.972-5.758-7.197
					c0.124-3.443,2.499-6.258,6.081-7.095c1.064-0.249,2.175-0.421,3.264-0.42c11.557,0.006,23.114,0.054,34.671,0.093
					C616.154,441.644,616.464,441.688,616.881,441.72z"/>
			</g>
			<g>
				<path style="fill:#2D6D7C;" d="M617.663,457.768c-6.831,0-13.663,0.003-20.495-0.001c-5.413-0.003-10.827,0.011-16.24-0.038
					c-1.135-0.01-2.297-0.15-3.397-0.43c-4.272-1.085-6.714-4.349-6.577-8.657c0.122-3.828,3.12-7.048,7.323-7.791
					c1.077-0.19,2.184-0.295,3.276-0.296c24.13-0.016,48.259-0.019,72.389,0.011c1.313,0.002,2.663,0.181,3.932,0.519
					c4.191,1.117,6.497,4.217,6.444,8.468c-0.046,3.651-2.714,6.815-6.657,7.769c-1.103,0.267-2.265,0.404-3.4,0.409
					c-9.542,0.035-19.084,0.026-28.626,0.029c-2.658,0.001-5.317,0-7.975,0C617.662,457.763,617.662,457.766,617.663,457.768z
					 M618.127,456.682c0.615,0,1.152-0.001,1.689,0c11.148,0.035,22.296,0.08,33.445,0.094c1.186,0.001,2.385-0.102,3.557-0.291
					c3.778-0.608,6.511-3.613,6.633-7.209c0.115-3.368-2.468-6.488-6.15-7.319c-1.11-0.251-2.268-0.406-3.404-0.408
					c-9.772-0.017-19.544,0.011-29.317,0.025c-2.139,0.003-4.278,0-6.453,0C618.127,446.723,618.127,451.619,618.127,456.682z
					 M616.881,441.72c-0.417-0.032-0.728-0.076-1.039-0.077c-11.557-0.04-23.114-0.087-34.671-0.093
					c-1.089-0.001-2.2,0.171-3.264,0.42c-3.582,0.837-5.957,3.652-6.081,7.095c-0.116,3.225,2.235,6.235,5.758,7.197
					c1.181,0.323,2.439,0.502,3.663,0.506c10.135,0.032,20.271,0.008,30.407,0.001c1.722-0.001,3.445,0,5.227,0
					C616.881,451.596,616.881,446.74,616.881,441.72z"/>
			</g>
		</g>
	</g>
	<g>
		<g>
			<path style="fill:#D0EFF7;" d="M691.878,276.25H544.527c-3.966,0-7.181-3.215-7.181-7.181v-15.319
				c0-3.966,3.215-7.181,7.181-7.181h147.351c3.966,0,7.181,3.215,7.181,7.181v15.319
				C699.059,273.035,695.844,276.25,691.878,276.25z"/>
			<path style="fill:#2D6D7C;" d="M691.626,276.716H544.778c-4.355,0-7.899-3.543-7.899-7.898v-14.816
				c0-4.355,3.544-7.899,7.899-7.899h146.848c4.355,0,7.898,3.543,7.898,7.899v14.816
				C699.525,273.174,695.982,276.716,691.626,276.716z M544.778,247.036c-3.842,0-6.967,3.125-6.967,6.967v14.816
				c0,3.841,3.125,6.966,6.967,6.966h146.848c3.841,0,6.966-3.125,6.966-6.966v-14.816c0-3.841-3.125-6.967-6.966-6.967H544.778z"/>
		</g>
		<g>
			<path style="fill:#D0EFF7;" d="M691.878,240.853H544.527c-3.966,0-7.181-3.215-7.181-7.181v-15.319
				c0-3.966,3.215-7.181,7.181-7.181h147.351c3.966,0,7.181,3.215,7.181,7.181v15.319
				C699.059,237.638,695.844,240.853,691.878,240.853z"/>
			<path style="fill:#2D6D7C;" d="M691.626,241.319H544.778c-4.355,0-7.899-3.543-7.899-7.899v-14.816
				c0-4.355,3.544-7.898,7.899-7.898h146.848c4.355,0,7.898,3.543,7.898,7.898v14.816
				C699.525,237.776,695.982,241.319,691.626,241.319z M544.778,211.639c-3.842,0-6.967,3.125-6.967,6.966v14.816
				c0,3.841,3.125,6.967,6.967,6.967h146.848c3.841,0,6.966-3.125,6.966-6.967v-14.816c0-3.841-3.125-6.966-6.966-6.966H544.778z"/>
		</g>
		<g>
			<path style="fill:#D0EFF7;" d="M691.878,311.648H544.527c-3.966,0-7.181-3.215-7.181-7.181v-15.319
				c0-3.966,3.215-7.181,7.181-7.181h147.351c3.966,0,7.181,3.215,7.181,7.181v15.319
				C699.059,308.433,695.844,311.648,691.878,311.648z"/>
			<path style="fill:#2D6D7C;" d="M691.626,312.113H544.778c-4.355,0-7.899-3.543-7.899-7.898v-14.816
				c0-4.355,3.544-7.898,7.899-7.898h146.848c4.355,0,7.898,3.543,7.898,7.898v14.816
				C699.525,308.57,695.982,312.113,691.626,312.113z M544.778,282.433c-3.842,0-6.967,3.125-6.967,6.966v14.816
				c0,3.841,3.125,6.966,6.967,6.966h146.848c3.841,0,6.966-3.125,6.966-6.966v-14.816c0-3.841-3.125-6.966-6.966-6.966H544.778z"/>
		</g>
		<g>
			<g>
				<path style="fill:#AAF0F7;" d="M618.152,217.28c-7.752-0.02-14.034-6.377-13.99-14.159c0.043-7.623,6.359-13.924,13.953-13.921
					c7.865,0.003,14.172,6.324,14.127,14.16C632.199,211.039,625.862,217.299,618.152,217.28z"/>
			</g>
			<g>
				<path style="fill:#F6FCFD;" d="M629.67,201.646c-1.615-1.949-3.287-3.849-5.014-5.699c-0.119-0.128-0.346-0.157-0.494-0.064
					c-3.648,2.294-6.693,5.458-8.857,9.181c-1.627-1.783-3.308-3.516-5.053-5.185c-0.195-0.186-0.498-0.142-0.641,0.083
					c-0.922,1.452-1.843,2.904-2.764,4.357c-0.02,0.032-0.025,0.063-0.036,0.095c-0.216,0.163-0.287,0.51,0.021,0.661
					c2.931,1.433,5.642,3.265,8.057,5.459c0.159,0.145,0.42,0.167,0.577,0c3.778-4.019,8.67-6.882,14.025-8.206
					C629.811,202.248,629.857,201.871,629.67,201.646z"/>
				<path style="fill:#2D6D7C;" d="M629.67,201.646c-1.615-1.949-3.287-3.849-5.014-5.699c-0.119-0.128-0.346-0.157-0.494-0.064
					c-3.648,2.294-6.693,5.458-8.857,9.181c-1.627-1.783-3.308-3.516-5.053-5.185c-0.195-0.186-0.498-0.142-0.641,0.083
					c-0.922,1.452-1.843,2.904-2.764,4.357c-0.02,0.032-0.025,0.063-0.036,0.095c-0.216,0.163-0.287,0.51,0.021,0.661
					c2.931,1.433,5.642,3.265,8.057,5.459c0.159,0.145,0.42,0.167,0.577,0c3.778-4.019,8.67-6.882,14.025-8.206
					C629.811,202.248,629.857,201.871,629.67,201.646z M607.645,204.584c0.797-1.257,1.594-2.513,2.392-3.77
					c1.742,1.681,3.43,3.416,5.053,5.212c0.175,0.193,0.518,0.139,0.641-0.083c2.058-3.713,5.01-6.869,8.573-9.173
					c1.495,1.611,2.946,3.261,4.358,4.946c-5.122,1.387-9.821,4.157-13.506,7.977C612.881,207.674,610.359,205.956,607.645,204.584z
					"/>
				<path style="fill:#2D6D7C;" d="M629.67,201.646c-1.615-1.949-3.287-3.849-5.014-5.699c-0.119-0.128-0.346-0.157-0.494-0.064
					c-3.648,2.294-6.693,5.458-8.857,9.181c-1.627-1.783-3.308-3.516-5.053-5.185c-0.195-0.186-0.498-0.142-0.641,0.083
					c-0.922,1.452-1.843,2.904-2.764,4.357c-0.02,0.032-0.025,0.063-0.036,0.095c-0.216,0.163-0.287,0.51,0.021,0.661
					c2.931,1.433,5.642,3.265,8.057,5.459c0.159,0.145,0.42,0.167,0.577,0c3.778-4.019,8.67-6.882,14.025-8.206
					C629.811,202.248,629.857,201.871,629.67,201.646z M607.645,204.584c0.797-1.257,1.594-2.513,2.392-3.77
					c1.742,1.681,3.43,3.416,5.053,5.212c0.175,0.193,0.518,0.139,0.641-0.083c2.058-3.713,5.01-6.869,8.573-9.173
					c1.495,1.611,2.946,3.261,4.358,4.946c-5.122,1.387-9.821,4.157-13.506,7.977C612.881,207.674,610.359,205.956,607.645,204.584z
					"/>
			</g>
			<g>
				<path style="fill:#2D6D7C;" d="M620.13,218.382c-1.285,0-2.57,0-3.854,0c-0.257-0.085-0.508-0.198-0.772-0.251
					c-5.204-1.052-8.952-3.976-11.128-8.813c-0.592-1.315-0.885-2.764-1.316-4.152c0-1.285,0-2.57,0-3.855
					c0.103-0.393,0.211-0.784,0.308-1.178c1.389-5.625,4.774-9.444,10.282-11.32c0.857-0.292,1.75-0.481,2.626-0.717
					c1.285,0,2.57,0,3.854,0c0.257,0.085,0.507,0.199,0.77,0.252c5.262,1.061,9.015,4.044,11.191,8.934
					c0.568,1.276,0.844,2.683,1.254,4.029c0,1.285,0,2.57,0,3.855c-0.103,0.393-0.212,0.784-0.308,1.178
					c-1.297,5.363-4.486,9.099-9.631,11.108C622.354,217.864,621.224,218.077,620.13,218.382z M618.152,217.28
					c7.711,0.02,14.047-6.24,14.091-13.92c0.045-7.836-6.262-14.157-14.127-14.16c-7.595-0.003-13.91,6.298-13.953,13.921
					C604.118,210.902,610.399,217.26,618.152,217.28z"/>
			</g>
		</g>
		<g>
			<g>
				<path style="fill:#80C8F9;" d="M618.695,334.113c0-5.063,0-9.959,0-15.108c2.175,0,4.314,0.002,6.453,0
					c9.772-0.013,19.544-0.042,29.317-0.024c1.136,0.002,2.294,0.157,3.404,0.408c3.682,0.831,6.264,3.951,6.15,7.319
					c-0.122,3.596-2.856,6.601-6.634,7.209c-1.172,0.188-2.371,0.292-3.557,0.29c-11.148-0.013-22.296-0.058-33.445-0.094
					C619.847,334.112,619.31,334.113,618.695,334.113z"/>
			</g>
			<g>
				<path style="fill:#80C8F9;" d="M617.45,319.152c0,5.02,0,9.876,0,15.049c-1.783,0-3.505-0.001-5.228,0
					c-10.136,0.007-20.271,0.031-30.407-0.001c-1.224-0.004-2.482-0.184-3.663-0.506c-3.523-0.962-5.874-3.972-5.758-7.197
					c0.124-3.443,2.499-6.258,6.081-7.095c1.064-0.249,2.175-0.421,3.264-0.42c11.557,0.006,23.114,0.053,34.671,0.093
					C616.722,319.076,617.033,319.12,617.45,319.152z"/>
			</g>
			<g>
				<path style="fill:#2D6D7C;" d="M618.231,335.2c-6.831,0-13.663,0.003-20.495-0.001c-5.413-0.003-10.827,0.011-16.24-0.038
					c-1.135-0.01-2.298-0.15-3.397-0.43c-4.272-1.085-6.714-4.349-6.577-8.657c0.122-3.828,3.12-7.048,7.323-7.791
					c1.077-0.19,2.183-0.295,3.276-0.296c24.13-0.016,48.259-0.019,72.389,0.011c1.313,0.002,2.663,0.181,3.932,0.519
					c4.191,1.117,6.497,4.217,6.444,8.468c-0.046,3.651-2.714,6.815-6.657,7.769c-1.103,0.267-2.265,0.405-3.4,0.409
					c-9.542,0.035-19.084,0.026-28.626,0.029c-2.658,0.001-5.317,0-7.975,0C618.23,335.195,618.23,335.197,618.231,335.2z
					 M618.695,334.113c0.615,0,1.152-0.002,1.689,0c11.148,0.035,22.296,0.08,33.445,0.094c1.186,0.001,2.385-0.102,3.557-0.29
					c3.778-0.608,6.511-3.613,6.634-7.209c0.114-3.368-2.468-6.488-6.15-7.319c-1.11-0.251-2.268-0.406-3.404-0.408
					c-9.772-0.017-19.544,0.011-29.317,0.024c-2.139,0.003-4.278,0-6.453,0C618.695,324.154,618.695,329.051,618.695,334.113z
					 M617.45,319.152c-0.417-0.032-0.728-0.076-1.039-0.077c-11.557-0.04-23.114-0.087-34.671-0.093
					c-1.089-0.001-2.2,0.171-3.264,0.42c-3.582,0.837-5.957,3.652-6.081,7.095c-0.116,3.225,2.235,6.235,5.758,7.197
					c1.181,0.323,2.439,0.502,3.663,0.506c10.136,0.032,20.271,0.008,30.407,0.001c1.722-0.001,3.445,0,5.228,0
					C617.45,329.028,617.45,324.171,617.45,319.152z"/>
			</g>
		</g>
	</g>
	<g>
		<g>
			<g>
				<path style="fill:#D0EFF7;" d="M571.026,146.326V65.59c0-6.353,5.15-11.503,11.503-11.503h71.658c6.18,0,11.19,5.01,11.19,11.19
					v81.294c0,6.107-4.951,11.057-11.057,11.057h-71.991C576.087,157.629,571.026,152.568,571.026,146.326z"/>
			</g>
			<g>
				<path style="fill:#2D6D7C;" d="M654.039,158.059h-71.674c-6.5,0-11.769-5.269-11.769-11.769V65.427
					c0-6.5,5.269-11.77,11.77-11.77h71.673c6.5,0,11.769,5.269,11.769,11.769v80.863
					C665.808,152.789,660.539,158.059,654.039,158.059z M582.365,54.517c-6.025,0-10.909,4.884-10.909,10.909v80.863
					c0,6.025,4.884,10.909,10.909,10.909h71.674c6.025,0,10.909-4.884,10.909-10.909V65.427c0-6.025-4.884-10.909-10.909-10.909
					H582.365z"/>
			</g>
		</g>
		<g>
			<g>
				<path style="fill:#80C8F9;" d="M618.695,179.59v-15.108c2.175,0,4.314,0.003,6.453,0c9.772-0.013,19.544-0.042,29.317-0.024
					c1.136,0.002,2.294,0.157,3.404,0.408c3.682,0.831,6.264,3.951,6.15,7.319c-0.122,3.596-2.856,6.601-6.634,7.209
					c-1.172,0.188-2.371,0.292-3.557,0.29c-11.148-0.014-22.297-0.058-33.445-0.094C619.847,179.588,619.31,179.59,618.695,179.59z"
					/>
			</g>
			<g>
				<path style="fill:#80C8F9;" d="M617.449,164.628c0,5.02,0,9.876,0,15.049c-1.783,0-3.505-0.001-5.227,0
					c-10.136,0.007-20.271,0.031-30.407-0.001c-1.224-0.004-2.482-0.183-3.663-0.506c-3.523-0.962-5.874-3.972-5.758-7.197
					c0.124-3.443,2.499-6.258,6.081-7.095c1.064-0.249,2.175-0.421,3.264-0.42c11.557,0.006,23.114,0.053,34.671,0.093
					C616.721,164.552,617.032,164.596,617.449,164.628z"/>
			</g>
			<g>
				<path style="fill:#2D6D7C;" d="M618.23,180.676c-6.832,0-13.663,0.003-20.495-0.001c-5.413-0.002-10.827,0.012-16.24-0.038
					c-1.135-0.01-2.298-0.15-3.397-0.43c-4.272-1.085-6.714-4.349-6.577-8.657c0.122-3.828,3.12-7.048,7.323-7.791
					c1.077-0.19,2.183-0.295,3.276-0.296c24.13-0.016,48.259-0.019,72.389,0.011c1.313,0.002,2.663,0.181,3.932,0.519
					c4.191,1.117,6.497,4.217,6.444,8.468c-0.046,3.651-2.714,6.815-6.657,7.769c-1.103,0.267-2.265,0.404-3.4,0.409
					c-9.542,0.035-19.084,0.026-28.626,0.029c-2.658,0.001-5.317,0-7.975,0C618.229,180.671,618.23,180.674,618.23,180.676z
					 M618.695,179.59c0.615,0,1.152-0.002,1.689,0c11.148,0.035,22.296,0.08,33.445,0.094c1.186,0.001,2.385-0.102,3.557-0.29
					c3.778-0.608,6.511-3.614,6.634-7.209c0.114-3.368-2.468-6.488-6.15-7.319c-1.11-0.251-2.268-0.406-3.404-0.408
					c-9.772-0.017-19.544,0.011-29.317,0.024c-2.139,0.003-4.278,0-6.453,0V179.59z M617.449,164.628
					c-0.417-0.032-0.728-0.076-1.039-0.077c-11.557-0.04-23.114-0.087-34.671-0.093c-1.089-0.001-2.2,0.171-3.264,0.42
					c-3.582,0.837-5.957,3.652-6.081,7.095c-0.116,3.225,2.235,6.235,5.758,7.197c1.181,0.323,2.439,0.502,3.663,0.506
					c10.136,0.032,20.271,0.008,30.407,0.001c1.722-0.001,3.445,0,5.227,0C617.449,174.504,617.449,169.648,617.449,164.628z"/>
			</g>
		</g>
		<g>
			<g>
				<path style="fill:#AAF0F7;" d="M618.151,71.414c-7.752-0.02-14.034-6.378-13.99-14.159c0.044-7.623,6.359-13.924,13.954-13.921
					c7.865,0.003,14.172,6.324,14.127,14.16C632.199,65.173,625.862,71.433,618.151,71.414z"/>
			</g>
			<g>
				<path style="fill:#F6FCFD;" d="M628.63,57.144c-0.125-1.446-0.171-2.925-0.391-4.36c-0.157-1.025-0.917-2.145-2.102-1.795
					c-0.076,0.022-0.131,0.062-0.176,0.108c-0.031-0.007-0.058-0.019-0.093-0.019h-16.095c-0.075-0.157-0.229-0.259-0.441-0.172
					c-0.96,0.397-1.438,1.253-1.637,2.241c-0.254,1.256-0.193,2.599-0.184,3.874c0.01,1.459,0.103,2.928,0.414,4.357
					c0.214,0.982,0.597,2.378,1.816,2.417c0.061,0.044,0.134,0.077,0.23,0.077h16.255c0.138,0,0.239-0.057,0.305-0.139
					c0.089,0.078,0.209,0.123,0.357,0.087C629.71,63.138,628.805,59.172,628.63,57.144z"/>
				<path style="fill:#2D6D7C;" d="M628.63,57.144c-0.125-1.446-0.171-2.925-0.391-4.36c-0.157-1.025-0.917-2.145-2.102-1.795
					c-0.076,0.022-0.131,0.062-0.176,0.108c-0.031-0.007-0.058-0.019-0.093-0.019h-16.095c-0.075-0.157-0.229-0.259-0.441-0.172
					c-0.96,0.397-1.438,1.254-1.637,2.241c-0.254,1.256-0.193,2.599-0.184,3.874c0.01,1.459,0.103,2.928,0.414,4.357
					c0.214,0.982,0.597,2.378,1.816,2.417c0.061,0.044,0.134,0.077,0.23,0.077h16.255c0.138,0,0.239-0.057,0.305-0.139
					c0.089,0.078,0.209,0.123,0.357,0.087C629.71,63.138,628.805,59.172,628.63,57.144z M627.146,52.083
					c0.347,0.54,0.358,1.588,0.396,2.027c0.099,1.146,0.198,2.292,0.297,3.438c0.091,1.055,0.253,2.133,0.229,3.193
					c-0.009,0.389-0.077,0.798-0.221,1.166c-1.403-1.774-2.968-3.406-4.697-4.865c0.126-0.136,0.255-0.268,0.38-0.404
					C624.846,55.21,626.104,53.724,627.146,52.083z M625.868,51.904c0.123,0,0.214-0.047,0.28-0.115
					c0.061,0.015,0.128,0.018,0.204-0.004c-1.024,1.587-2.251,3.021-3.533,4.405c-1.343,1.45-2.707,2.879-4.064,4.316
					c-3.404-2.289-6.381-5.182-8.752-8.531c-0.022-0.031-0.049-0.048-0.075-0.07H625.868z M608.577,60.397
					c-0.191-1.179-0.238-2.379-0.241-3.572c-0.003-1.001-0.03-2.028,0.086-3.024c0.083-0.71,0.291-1.59,0.938-1.991
					c0.021,0.017,0.046,0.03,0.07,0.043c-0.187,0.101-0.299,0.316-0.141,0.539c1.184,1.672,2.513,3.228,3.962,4.662
					c-1.474,1.721-2.87,3.51-4.181,5.358C608.747,61.789,608.645,60.819,608.577,60.397z M626.668,63.023
					c-0.086,0.021-0.145,0.064-0.192,0.115c-0.064-0.053-0.143-0.092-0.25-0.092h-16.218c-0.06-0.04-0.129-0.07-0.22-0.07
					c-0.035,0-0.061-0.02-0.094-0.025c1.299-1.84,2.686-3.614,4.152-5.324c1.472,1.39,3.06,2.658,4.76,3.777
					c0.148,0.098,0.38,0.063,0.5-0.065c1.161-1.231,2.324-2.461,3.48-3.698c1.765,1.49,3.383,3.158,4.796,4.986
					C627.19,62.81,626.959,62.953,626.668,63.023z"/>
			</g>
			<g>
				<g>
					<path style="fill:#2D6D7C;" d="M620.129,72.516c-1.285,0-2.57,0-3.855,0c-0.257-0.085-0.508-0.198-0.772-0.251
						c-5.204-1.052-8.952-3.976-11.128-8.813c-0.552-1.227-0.844-2.57-1.231-3.872c-0.043-1.35-0.084-2.624-0.127-3.974
						c0.115-0.447,0.24-0.891,0.35-1.339c1.389-5.625,4.774-9.444,10.282-11.32c0.857-0.292,1.75-0.481,2.626-0.718
						c1.285,0,2.57,0,3.855,0c0.256,0.085,0.507,0.199,0.77,0.252c5.262,1.062,9.015,4.044,11.191,8.934
						c0.559,1.256,0.835,2.637,1.234,3.963c0.031,1.238,0.06,2.407,0.091,3.646c-0.122,0.485-0.261,0.967-0.379,1.454
						c-1.297,5.362-4.486,9.098-9.631,11.108C622.354,71.997,621.224,72.211,620.129,72.516z M618.151,71.414
						c7.711,0.02,14.047-6.241,14.091-13.921c0.045-7.836-6.262-14.157-14.127-14.16c-7.595-0.003-13.91,6.298-13.954,13.921
						C604.117,65.036,610.399,71.394,618.151,71.414z"/>
				</g>
			</g>
		</g>
	</g>
</g>
<g id="FONTS">
	<rect x="343.13" y="73.417" style="fill:none;" width="140.986" height="44.465"/>
	<rect x="359.743" y="371.454" style="fill:none;" width="112.93" height="44.465"/>
	<rect x="566.722" y="378.594" style="fill:none;" width="112.93" height="47.321"/>
	<rect x="577.86" y="73.417" style="fill:none;" width="90.656" height="65.948"/>
	<g>
		<text transform="matrix(1 0 0 1 346.2463 92.2525)" style="fill:#2D6D7C; font-family:'Cookie-Regular'; font-size:13.4552px;">Dont quit. Suffer now and live the </text>
		<text transform="matrix(1 0 0 1 354.945 108.399)" style="fill:#2D6D7C; font-family:'Cookie-Regular'; font-size:13.4552px;">rest of your life as a champion.</text>
		<rect x="353.782" y="141.309" style="fill:none;" width="47.571" height="13.456"/>
		<text transform="matrix(1 0 0 1 363.5602 150.5395)" style="fill:#2D6D7C; font-family:'MyriadPro-Regular'; font-size:13px;">SAVE</text>
		<rect x="429.404" y="141.309" style="fill:none;" width="47.571" height="13.456"/>
		<text transform="matrix(1 0 0 1 435.4713 150.5395)" style="fill:#2D6D7C; font-family:'MyriadPro-Regular'; font-size:13px;">CLOSE</text>
	</g>
	<g>
		<rect x="362.566" y="226.178" style="fill:none;" width="103.837" height="12.532"/>
		<text transform="matrix(1 0 0 1 384.736 234.2515)" style="fill:#2D6D7C; font-family:'Cookie-Regular'; font-size:13.4552px;">I may stumble.</text>
		<rect x="362.566" y="241.507" style="fill:none;" width="103.837" height="12.532"/>
		<text transform="matrix(1 0 0 1 392.6881 249.5801)" style="fill:#2D6D7C; font-family:'Cookie-Regular'; font-size:13.4552px;">I may fall.</text>
		<rect x="362.566" y="256.835" style="fill:none;" width="103.837" height="12.532"/>
		<text transform="matrix(1 0 0 1 393.152 264.9082)" style="fill:#2D6D7C; font-family:'Cookie-Regular'; font-size:13.4552px;">I may cry.</text>
		<rect x="362.566" y="209.159" style="fill:none;" width="103.837" height="12.532"/>
		
			<text transform="matrix(1 0 0 1 391.5749 216.5073)" style="fill:#2D6D7C; font-family:'MontserratRoman-Medium'; font-size:10.3502px;">REMINDER</text>
		<rect x="362.566" y="272.164" style="fill:none;" width="103.837" height="12.532"/>
		<text transform="matrix(1 0 0 1 369.7946 280.2373)" style="fill:#2D6D7C; font-family:'Cookie-Regular'; font-size:13.4552px;">But Ill Never give up!</text>
		<rect x="352.279" y="314.171" style="fill:none;" width="47.571" height="13.456"/>
		<text transform="matrix(1 0 0 1 362.0568 323.4011)" style="fill:#2D6D7C; font-family:'MyriadPro-Regular'; font-size:13px;">SAVE</text>
		<rect x="427.901" y="314.171" style="fill:none;" width="47.571" height="13.456"/>
		<text transform="matrix(1 0 0 1 433.9678 323.4011)" style="fill:#2D6D7C; font-family:'MyriadPro-Regular'; font-size:13px;">CLOSE</text>
	</g>
	<g>
		<text transform="matrix(1 0 0 1 366.9871 389.0347)" style="fill:#2D6D7C; font-family:'Cookie-Regular'; font-size:13.4552px;">There is nothing impossible </text>
		<text transform="matrix(1 0 0 1 380.0716 405.1812)" style="fill:#2D6D7C; font-family:'Cookie-Regular'; font-size:13.4552px;">to they who will try.</text>
		<rect x="354.796" y="441.459" style="fill:none;" width="47.571" height="13.456"/>
		<text transform="matrix(1 0 0 1 364.5745 450.6883)" style="fill:#2D6D7C; font-family:'MyriadPro-Regular'; font-size:13px;">SAVE</text>
		<rect x="430.419" y="441.459" style="fill:none;" width="47.571" height="13.456"/>
		<text transform="matrix(1 0 0 1 436.4855 450.6883)" style="fill:#2D6D7C; font-family:'MyriadPro-Regular'; font-size:13px;">CLOSE</text>
	</g>
	<g>
		<text transform="matrix(1 0 0 1 568.5599 387.9137)" style="fill:#2D6D7C; font-family:'Cookie-Regular'; font-size:13.4552px;">You define your own life. </text>
		<text transform="matrix(1 0 0 1 564.9681 404.0602)" style="fill:#2D6D7C; font-family:'Cookie-Regular'; font-size:13.4552px;">Dont let other people write </text>
		<text transform="matrix(1 0 0 1 596.7015 420.2066)" style="fill:#2D6D7C; font-family:'Cookie-Regular'; font-size:13.4552px;">your script.</text>
		<rect x="576.589" y="445.08" style="fill:none;" width="38.259" height="10.822"/>
		<text transform="matrix(1 0 0 1 583.8668 452.8907)" style="fill:#2D6D7C; font-family:'MyriadPro-Regular'; font-size:11px;">SAVE</text>
		<rect x="620.658" y="445.08" style="fill:none;" width="38.259" height="10.822"/>
		<text transform="matrix(1 0 0 1 624.795 452.8907)" style="fill:#2D6D7C; font-family:'MyriadPro-Regular'; font-size:11px;">CLOSE</text>
	</g>
	<g>
		<rect x="566.284" y="223.073" style="fill:none;" width="103.837" height="12.532"/>
		
			<text transform="matrix(1 0 0 1 595.2924 230.4224)" style="fill:#2D6D7C; font-family:'MontserratRoman-Medium'; font-size:10.3502px;">REMINDER</text>
		<rect x="541.99" y="257.214" style="fill:none;" width="152.425" height="12.532"/>
		<text transform="matrix(1 0 0 1 547.0199 265.2861)" style="fill:#2D6D7C; font-family:'Cookie-Regular'; font-size:13.4552px;">Dream big, stay positive, work hard,</text>
		<rect x="566.284" y="292.611" style="fill:none;" width="103.837" height="12.532"/>
		<text transform="matrix(1 0 0 1 574.474 300.6846)" style="fill:#2D6D7C; font-family:'Cookie-Regular'; font-size:13.4552px;">and enjoy the journey.</text>
		<rect x="576.59" y="323.216" style="fill:none;" width="38.259" height="10.822"/>
		<text transform="matrix(1 0 0 1 583.8669 331.0265)" style="fill:#2D6D7C; font-family:'MyriadPro-Regular'; font-size:11px;">SAVE</text>
		<rect x="620.658" y="323.216" style="fill:none;" width="38.259" height="10.822"/>
		<text transform="matrix(1 0 0 1 624.795 331.0265)" style="fill:#2D6D7C; font-family:'MyriadPro-Regular'; font-size:11px;">CLOSE</text>
	</g>
	<g>
		<text transform="matrix(1 0 0 1 577.9042 104.584)" style="fill:#2D6D7C; font-family:'Cookie-Regular'; font-size:13.4552px;">Nothing is impossible </text>
		<text transform="matrix(1 0 0 1 583.663 120.7305)" style="fill:#2D6D7C; font-family:'Cookie-Regular'; font-size:13.4552px;">to a willing heart.</text>
		<rect x="576.589" y="167.654" style="fill:none;" width="38.259" height="10.822"/>
		<text transform="matrix(1 0 0 1 583.8665 175.4641)" style="fill:#2D6D7C; font-family:'MyriadPro-Regular'; font-size:11px;">SAVE</text>
		<rect x="620.658" y="167.654" style="fill:none;" width="38.259" height="10.822"/>
		<text transform="matrix(1 0 0 1 624.7946 175.4641)" style="fill:#2D6D7C; font-family:'MyriadPro-Regular'; font-size:11px;">CLOSE</text>
	</g>
	<g>
		<text transform="matrix(1 0 0 1 96.9954 203.3306)" style="fill:#2D6D7C; font-family:'Cookie-Regular'; font-size:13.4552px;">Dont quit. Suffer now and live the </text>
		<text transform="matrix(1 0 0 1 105.6942 219.4771)" style="fill:#2D6D7C; font-family:'Cookie-Regular'; font-size:13.4552px;">rest of your life as a champion.</text>
		<rect x="104.531" y="252.387" style="fill:none;" width="47.571" height="13.456"/>
		<text transform="matrix(1 0 0 1 114.3094 261.6175)" style="fill:#2D6D7C; font-family:'MyriadPro-Regular'; font-size:13px;">SAVE</text>
		<rect x="180.154" y="252.387" style="fill:none;" width="47.571" height="13.456"/>
		<text transform="matrix(1 0 0 1 186.2204 261.6175)" style="fill:#2D6D7C; font-family:'MyriadPro-Regular'; font-size:13px;">CLOSE</text>
	</g>
</g>
</svg>
